<svg width="24" height="24" viewBox="0 0 24 24" fill="none" xmlns="http://www.w3.org/2000/svg">
<path d="M17 16.62C17.6186 16.62 18.12 16.1186 18.12 15.5C18.12 14.8814 17.6186 14.38 17 14.38C16.3814 14.38 15.88 14.8814 15.88 15.5C15.88 16.1186 16.3814 16.62 17 16.62Z" fill="white"/>
<path fill-rule="evenodd" clip-rule="evenodd" d="M17 17.5C16.27 17.5 14.81 17.86 14.76 18.58C15.26 19.29 16.08 19.75 17 19.75C17.92 19.75 18.74 19.29 19.24 18.58C19.19 17.86 17.73 17.5 17 17.5Z" fill="white"/>
<path d="M17.75 11.09C17.75 11.212 17.838 11.3162 17.9583 11.3365C20.6806 11.7966 22.75 14.1546 22.75 17C22.75 20.1719 20.1719 22.75 17 22.75H16.9998C16.0783 22.7508 15.1703 22.5291 14.3529 22.1037C13.5355 21.6783 12.8329 21.0619 12.3049 20.3067C12.2364 20.2088 12.1082 20.173 11.9989 20.2214C11.5081 20.4384 11.0118 20.6175 10.5003 20.7428C6.34905 19.7172 3.25 15.5915 3.25 11.18V6.43373L10.5 3.27273L17.75 6.43373V11.09ZM11.3342 18.8473C11.4471 18.7955 11.5049 18.6686 11.4698 18.5495C11.3267 18.0627 11.25 17.5365 11.25 17C11.25 14.1546 13.3194 11.7966 16.0417 11.3365C16.162 11.3162 16.25 11.212 16.25 11.09V7.58C16.25 7.48059 16.1911 7.39062 16.1 7.35086L10.6 4.95086C10.5362 4.92304 10.4638 4.92304 10.4 4.95086L4.90001 7.35086C4.8089 7.39062 4.75 7.48059 4.75 7.58V11.18C4.75 14.7836 7.14561 18.124 10.4248 19.1584C10.4741 19.174 10.527 19.1739 10.5762 19.1581C10.8406 19.0735 11.092 18.9582 11.3278 18.8502L11.3342 18.8473ZM12.75 17C12.75 19.3481 14.6519 21.25 17 21.25C19.3481 21.25 21.25 19.3481 21.25 17C21.25 14.6519 19.3481 12.75 17 12.75C14.6519 12.75 12.75 14.6519 12.75 17Z" fill="white" stroke="#01337C" stroke-width="0.5" stroke-linejoin="round"/>
</svg>
