<svg width="17" height="18" viewBox="0 0 17 18" fill="none" xmlns="http://www.w3.org/2000/svg">
<path d="M11.5 8.00027C11.0833 8.00027 10.7293 7.85461 10.438 7.56327C10.1467 7.27194 10.0007 6.91761 10 6.50027C10 6.28361 10.0793 6.03361 10.238 5.75027C10.3967 5.46694 10.5673 5.19627 10.75 4.93827C10.9327 4.68027 11.1037 4.45927 11.263 4.27527L11.5 4.00027L11.738 4.27527C11.896 4.45861 12.0667 4.67961 12.25 4.93827C12.4333 5.19694 12.6043 5.46761 12.763 5.75027C12.9217 6.03294 13.0007 6.28294 13 6.50027C13 6.91694 12.8543 7.27127 12.563 7.56327C12.2717 7.85527 11.9173 8.00094 11.5 8.00027ZM15.5 5.00027C15.0833 5.00027 14.7293 4.85461 14.438 4.56327C14.1467 4.27194 14.0007 3.91761 14 3.50027C14 3.28361 14.0793 3.03361 14.238 2.75027C14.3967 2.46694 14.5673 2.19627 14.75 1.93827C14.9327 1.68027 15.1037 1.45927 15.263 1.27527L15.5 1.00027L15.738 1.27527C15.896 1.45861 16.0667 1.67961 16.25 1.93827C16.4333 2.19694 16.6043 2.46761 16.763 2.75027C16.9217 3.03294 17.0007 3.28294 17 3.50027C17 3.91694 16.8543 4.27128 16.563 4.56327C16.2717 4.85527 15.9173 5.00094 15.5 5.00027ZM15.5 11.0003C15.0833 11.0003 14.7293 10.8546 14.438 10.5633C14.1467 10.2719 14.0007 9.91761 14 9.50027C14 9.28361 14.0793 9.03361 14.238 8.75027C14.3967 8.46694 14.5673 8.19627 14.75 7.93827C14.9327 7.68027 15.1037 7.45927 15.263 7.27527L15.5 7.00027L15.738 7.27527C15.896 7.45861 16.0667 7.67961 16.25 7.93827C16.4333 8.19694 16.6043 8.46761 16.763 8.75027C16.9217 9.03294 17.0007 9.28294 17 9.50027C17 9.91694 16.8543 10.2713 16.563 10.5633C16.2717 10.8553 15.9173 11.0009 15.5 11.0003ZM5 18.0003C3.61667 18.0003 2.43767 17.5126 1.463 16.5373C0.488333 15.5619 0.000666667 14.3829 0 13.0003C0 12.2003 0.175 11.4543 0.525 10.7623C0.875 10.0703 1.36667 9.48294 2 9.00027V3.00027C2 2.16694 2.29167 1.45861 2.875 0.875275C3.45833 0.291941 4.16667 0.000274658 5 0.000274658C5.83333 0.000274658 6.54167 0.291941 7.125 0.875275C7.70833 1.45861 8 2.16694 8 3.00027V9.00027C8.63333 9.48361 9.125 10.0713 9.475 10.7633C9.825 11.4553 10 12.2009 10 13.0003C10 14.3836 9.51233 15.5629 8.537 16.5383C7.56167 17.5136 6.38267 18.0009 5 18.0003ZM2 13.0003H8C8 12.5169 7.896 12.0669 7.688 11.6503C7.48 11.2336 7.184 10.8836 6.8 10.6003L6 10.0003V3.00027C6 2.71694 5.904 2.47961 5.712 2.28827C5.52 2.09694 5.28267 2.00094 5 2.00027C4.71733 1.99961 4.48 2.09561 4.288 2.28827C4.096 2.48094 4 2.71827 4 3.00027V10.0003L3.2 10.6003C2.81667 10.8836 2.52067 11.2336 2.312 11.6503C2.10333 12.0669 1.99933 12.5169 2 13.0003Z" fill="#01337C"/>
</svg>
