<svg width="18" height="15" viewBox="0 0 18 15" fill="none" xmlns="http://www.w3.org/2000/svg">
<path d="M1.64379 3.75754C3.39079 2.25754 4.77079 1.07154 8.51579 3.18754C10.3148 4.20354 11.7658 4.58753 12.9728 4.58554C15.0878 4.58554 16.4588 3.40954 17.6438 2.39254C17.8472 2.21559 17.9737 1.96639 17.9965 1.69776C18.0192 1.42913 17.9365 1.1622 17.7658 0.953535C17.6825 0.851144 17.5796 0.766491 17.463 0.704586C17.3464 0.642681 17.2187 0.604781 17.0872 0.593126C16.9557 0.581472 16.8233 0.596301 16.6976 0.636735C16.572 0.67717 16.4558 0.742389 16.3558 0.828535C14.6098 2.33054 13.2288 3.51654 9.48379 1.39854C4.53579 -1.39446 2.21779 0.595535 0.355789 2.19554C0.15254 2.37262 0.0262366 2.62189 0.00364913 2.89051C-0.0189384 3.15914 0.0639655 3.426 0.234789 3.63454C0.318112 3.73675 0.421092 3.82122 0.537636 3.88293C0.65418 3.94464 0.78192 3.98234 0.913294 3.99381C1.04467 4.00528 1.17701 3.99028 1.30248 3.94969C1.42796 3.90911 1.54402 3.84377 1.64379 3.75754ZM16.3558 5.93553C14.6098 7.43553 13.2288 8.62354 9.48379 6.50553C4.53579 3.71053 2.21779 5.70153 0.355789 7.30053C0.15254 7.47762 0.0262366 7.72689 0.00364913 7.99551C-0.0189384 8.26414 0.0639655 8.531 0.234789 8.73954C0.317968 8.8419 0.420838 8.92653 0.53731 8.98842C0.653782 9.05031 0.781487 9.08821 0.912867 9.09987C1.04425 9.11152 1.17663 9.0967 1.30218 9.05628C1.42773 9.01585 1.54389 8.95065 1.64379 8.86454C3.39079 7.36354 4.77079 6.17754 8.51579 8.29254C10.3148 9.31054 11.7658 9.69254 12.9728 9.69254C15.0878 9.69254 16.4588 8.51653 17.6438 7.49754C17.8473 7.32091 17.974 7.07184 17.9968 6.80331C18.0195 6.53477 17.9367 6.26793 17.7658 6.05954C17.6825 5.9571 17.5796 5.87242 17.463 5.81053C17.3464 5.74863 17.2185 5.71078 17.087 5.69922C16.9555 5.68765 16.823 5.70261 16.6974 5.74321C16.5718 5.7838 16.4556 5.8492 16.3558 5.93553ZM16.3558 11.0415C14.6098 12.5435 13.2288 13.7295 9.48379 11.6135C4.53579 8.81854 2.21779 10.8085 0.355789 12.4085C0.15254 12.5856 0.0262366 12.8349 0.00364913 13.1035C-0.0189384 13.3721 0.0639655 13.639 0.234789 13.8475C0.31803 13.9499 0.420978 14.0344 0.537524 14.0962C0.654071 14.158 0.781842 14.1958 0.913256 14.2072C1.04467 14.2187 1.17705 14.2037 1.30254 14.163C1.42803 14.1224 1.54408 14.0569 1.64379 13.9705C3.39079 12.4705 4.77079 11.2855 8.51579 13.4005C10.3148 14.4165 11.7658 14.8005 12.9728 14.8005C15.0878 14.8005 16.4588 13.6225 17.6438 12.6055C17.8472 12.4286 17.9737 12.1794 17.9965 11.9108C18.0192 11.6421 17.9365 11.3752 17.7658 11.1665C17.6824 11.0643 17.5794 10.9797 17.4629 10.9179C17.3463 10.8561 17.2186 10.8182 17.0872 10.8066C16.9557 10.7949 16.8233 10.8097 16.6977 10.8501C16.5721 10.8904 16.4558 10.9555 16.3558 11.0415Z" fill="#01337C"/>
</svg>
