<svg width="16" height="21" viewBox="0 0 16 21" fill="none" xmlns="http://www.w3.org/2000/svg">
<path d="M8 20.1888C5.71667 20.1888 3.81267 19.4054 2.288 17.8388C0.763333 16.2721 0.000666667 14.3221 0 11.9888C0 10.9554 0.233333 9.9221 0.7 8.88876C1.16667 7.85543 1.75 6.86376 2.45 5.91376C3.15 4.96376 3.90833 4.0721 4.725 3.23876C5.54167 2.40543 6.3 1.68043 7 1.06376C7.13333 0.930429 7.28767 0.834762 7.463 0.776762C7.63833 0.718762 7.81733 0.689429 8 0.688762C8.18267 0.688096 8.362 0.717429 8.538 0.776762C8.714 0.836096 8.868 0.931762 9 1.06376C9.7 1.68043 10.4583 2.40543 11.275 3.23876C12.0917 4.0721 12.85 4.96376 13.55 5.91376C14.25 6.86376 14.8333 7.85543 15.3 8.88876C15.7667 9.9221 16 10.9554 16 11.9888C16 14.3221 15.2377 16.2721 13.713 17.8388C12.1883 19.4054 10.284 20.1888 8 20.1888ZM10.5 16.1888C10.9167 16.1888 11.271 16.0431 11.563 15.7518C11.855 15.4604 12.0007 15.1061 12 14.6888C11.9993 14.2714 11.8537 13.9174 11.563 13.6268C11.2723 13.3361 10.918 13.1901 10.5 13.1888C10.082 13.1874 9.728 13.3334 9.438 13.6268C9.148 13.9201 9.002 14.2741 9 14.6888C8.998 15.1034 9.144 15.4578 9.438 15.7518C9.732 16.0458 10.086 16.1914 10.5 16.1888ZM4.75 15.4388C4.95 15.6388 5.18333 15.7388 5.45 15.7388C5.71667 15.7388 5.95 15.6388 6.15 15.4388L11.25 10.3388C11.45 10.1388 11.55 9.90543 11.55 9.63876C11.55 9.3721 11.45 9.13876 11.25 8.93876C11.05 8.73876 10.8127 8.63876 10.538 8.63876C10.2633 8.63876 10.0257 8.73876 9.825 8.93876L4.75 14.0138C4.55 14.2138 4.45 14.4514 4.45 14.7268C4.45 15.0021 4.55 15.2394 4.75 15.4388ZM5.5 11.1888C5.91667 11.1888 6.271 11.0431 6.563 10.7518C6.855 10.4604 7.00067 10.1061 7 9.68876C6.99933 9.27143 6.85367 8.91743 6.563 8.62676C6.27233 8.3361 5.918 8.1901 5.5 8.18876C5.082 8.18743 4.728 8.33343 4.438 8.62676C4.148 8.9201 4.002 9.2741 4 9.68876C3.998 10.1034 4.144 10.4578 4.438 10.7518C4.732 11.0458 5.086 11.1914 5.5 11.1888Z" fill="#01337C"/>
</svg>
