<svg width="22" height="15" viewBox="0 0 22 15" fill="none" xmlns="http://www.w3.org/2000/svg">
<path d="M11 12.0003C12.25 12.0003 13.3127 11.5629 14.188 10.6883C15.0633 9.81361 15.5007 8.75094 15.5 7.50028C15.4993 6.24961 15.062 5.18727 14.188 4.31327C13.314 3.43927 12.2513 3.00161 11 3.00028C9.74867 2.99894 8.68633 3.43661 7.813 4.31327C6.93967 5.18994 6.502 6.25227 6.5 7.50028C6.498 8.74827 6.93567 9.81094 7.813 10.6883C8.69033 11.5656 9.75267 12.0029 11 12.0003ZM11 10.2003C10.25 10.2003 9.61267 9.93761 9.088 9.41228C8.56333 8.88694 8.30067 8.24961 8.3 7.50028C8.29933 6.75094 8.562 6.11361 9.088 5.58828C9.614 5.06294 10.2513 4.80028 11 4.80028C11.7487 4.80028 12.3863 5.06294 12.913 5.58828C13.4397 6.11361 13.702 6.75094 13.7 7.50028C13.698 8.24961 13.4357 8.88728 12.913 9.41328C12.3903 9.93928 11.7527 10.2016 11 10.2003ZM11 15.0003C8.56667 15.0003 6.35 14.3213 4.35 12.9633C2.35 11.6053 0.9 9.78428 0 7.50028C0.9 5.21694 2.35 3.39628 4.35 2.03828C6.35 0.680275 8.56667 0.000941815 11 0.000275148C13.4333 -0.000391518 15.65 0.678942 17.65 2.03828C19.65 3.39761 21.1 5.21828 22 7.50028C21.1 9.78361 19.65 11.6046 17.65 12.9633C15.65 14.3219 13.4333 15.0009 11 15.0003Z" fill="#01337C"/>
</svg>
