<svg width="20" height="15" viewBox="0 0 20 15" fill="none" xmlns="http://www.w3.org/2000/svg">
<path d="M18.693 12.3309C19.0505 10.9974 19.0965 9.5995 18.8273 8.24541C18.5581 6.89131 17.9809 5.61729 17.1406 4.52193C16.3002 3.42657 15.2191 2.53923 13.9809 1.92856C12.7427 1.3179 11.3806 1.00027 10 1.00027C8.6194 1.00027 7.25731 1.3179 6.01911 1.92856C4.78092 2.53923 3.69981 3.42657 2.85943 4.52193C2.01905 5.61729 1.44194 6.89131 1.17274 8.24541C0.903549 9.5995 0.949485 10.9974 1.307 12.3309" stroke="#01337C" stroke-width="2" stroke-linecap="round"/>
<path d="M10.766 10.5829C11.253 11.2929 10.91 12.3749 10 12.9999C9.09001 13.6259 7.95701 13.5579 7.47001 12.8489C6.95001 12.0929 5.15601 7.84189 4.06701 5.21188C3.86201 4.71688 4.46701 4.30088 4.85701 4.66988C6.92101 6.62988 10.247 9.82688 10.766 10.5829Z" stroke="#01337C" stroke-width="2"/>
<path d="M10 1.00089V3.00089M3.63601 3.63688L5.05001 5.05089M16.364 3.63688L14.95 5.05089M18.693 12.3309L16.762 11.8129M1.30701 12.3309L3.23801 11.8129" stroke="#01337C" stroke-width="2" stroke-linecap="round"/>
</svg>
