<svg width="24" height="24" viewBox="0 0 24 24" fill="none" xmlns="http://www.w3.org/2000/svg">
<path d="M16.75 2C16.75 2.13807 16.8619 2.25 17 2.25H20C20.1989 2.25 20.3897 2.32902 20.5303 2.46967C20.671 2.61032 20.75 2.80109 20.75 3V21C20.75 21.1989 20.671 21.3897 20.5303 21.5303C20.3897 21.671 20.1989 21.75 20 21.75H4C3.80109 21.75 3.61032 21.671 3.46967 21.5303C3.32902 21.3897 3.25 21.1989 3.25 21V3C3.25 2.80109 3.32902 2.61032 3.46967 2.46967C3.61032 2.32902 3.80109 2.25 4 2.25H7C7.13807 2.25 7.25 2.13807 7.25 2V0.25H8.75V2C8.75 2.13807 8.86193 2.25 9 2.25H15C15.1381 2.25 15.25 2.13807 15.25 2V0.25H16.75V2ZM17 3.75C16.8619 3.75 16.75 3.86193 16.75 4V5.75H15.25V4C15.25 3.86193 15.1381 3.75 15 3.75H9C8.86193 3.75 8.75 3.86193 8.75 4V5.75H7.25V4C7.25 3.86193 7.13807 3.75 7 3.75H5C4.86193 3.75 4.75 3.86193 4.75 4V20C4.75 20.1381 4.86193 20.25 5 20.25H19C19.1381 20.25 19.25 20.1381 19.25 20V4C19.25 3.86193 19.1381 3.75 19 3.75H17ZM7.25 8.25H16.75V9.75H7.25V8.25ZM7.25 12.25H16.75V13.75H7.25V12.25Z" fill="white" stroke="#01398C" stroke-width="0.5" stroke-linejoin="round"/>
</svg>
