<svg width="24" height="24" viewBox="0 0 24 24" fill="none" xmlns="http://www.w3.org/2000/svg">
<rect width="24" height="24" rx="12" fill="white"/>
<path d="M7 8.5C7 7.83696 7.26339 7.20107 7.73223 6.73223C8.20107 6.26339 8.83696 6 9.5 6H10.3333V5.16667C10.3333 4.94565 10.4211 4.73369 10.5774 4.57741C10.7337 4.42113 10.9457 4.33333 11.1667 4.33333H12.8333C13.0543 4.33333 13.2663 4.42113 13.4226 4.57741C13.5789 4.73369 13.6667 4.94565 13.6667 5.16667V6H14.5C15.163 6 15.7989 6.26339 16.2678 6.73223C16.7366 7.20107 17 7.83696 17 8.5V18.5C17 19.163 16.7366 19.7989 16.2678 20.2678C15.7989 20.7366 15.163 21 14.5 21H9.5C8.83696 21 8.20107 20.7366 7.73223 20.2678C7.26339 19.7989 7 19.163 7 18.5L7 8.5ZM8.25 8.50167V18.5C8.25001 18.8107 8.36577 19.1103 8.57468 19.3403C8.7836 19.5704 9.0707 19.7143 9.38 19.7442L9.5 19.75H14.5C14.8106 19.75 15.1101 19.6344 15.3401 19.4256C15.5701 19.2169 15.7141 18.93 15.7442 18.6208L15.75 18.5V8.50167C15.75 8.19106 15.6344 7.89158 15.4256 7.66158C15.2169 7.43157 14.93 7.28753 14.6208 7.2575L14.5 7.25167H9.5C9.18939 7.25166 8.88991 7.3673 8.65991 7.57604C8.42991 7.78478 8.28586 8.07168 8.25583 8.38083L8.25 8.50167Z" fill="#F05348"/>
<rect x="9" y="16" width="6" height="3" rx="1" fill="#F05348"/>
</svg>
