<svg width="20" height="20" viewBox="0 0 20 20" fill="none" xmlns="http://www.w3.org/2000/svg">
<path d="M17.5002 16.6666H19.1668V18.3333H0.833496V16.6666H2.50016V2.49996C2.50016 2.27895 2.58796 2.06698 2.74424 1.9107C2.90052 1.75442 3.11248 1.66663 3.3335 1.66663H16.6668C16.8878 1.66663 17.0998 1.75442 17.2561 1.9107C17.4124 2.06698 17.5002 2.27895 17.5002 2.49996V16.6666ZM6.66683 9.16663V10.8333H9.16683V9.16663H6.66683ZM6.66683 5.83329V7.49996H9.16683V5.83329H6.66683ZM6.66683 12.5V14.1666H9.16683V12.5H6.66683ZM10.8335 12.5V14.1666H13.3335V12.5H10.8335ZM10.8335 9.16663V10.8333H13.3335V9.16663H10.8335ZM10.8335 5.83329V7.49996H13.3335V5.83329H10.8335Z" fill="#01337C"/>
</svg>
