<svg width="40" height="41" viewBox="0 0 40 41" fill="none" xmlns="http://www.w3.org/2000/svg">
<rect y="0.5" width="40" height="40" rx="4" fill="#C0D9FF"/>
<path d="M21 24.9C21 25.1917 20.8946 25.4715 20.7071 25.6778C20.5196 25.8841 20.2652 26 20 26C19.7348 26 19.4804 25.8841 19.2929 25.6778C19.1054 25.4715 19 25.1917 19 24.9C19 24.6083 19.1054 24.3285 19.2929 24.1222C19.4804 23.9159 19.7348 23.8 20 23.8C20.2652 23.8 20.5196 23.9159 20.7071 24.1222C20.8946 24.3285 21 24.6083 21 24.9ZM20.75 15.825C20.75 15.6062 20.671 15.3964 20.5303 15.2416C20.3897 15.0869 20.1989 15 20 15C19.8011 15 19.6103 15.0869 19.4697 15.2416C19.329 15.3964 19.25 15.6062 19.25 15.825V20.775C19.25 20.9938 19.329 21.2036 19.4697 21.3584C19.6103 21.5131 19.8011 21.6 20 21.6C20.1989 21.6 20.3897 21.5131 20.5303 21.3584C20.671 21.2036 20.75 20.9938 20.75 20.775V15.825Z" fill="#01337C"/>
<path fill-rule="evenodd" clip-rule="evenodd" d="M20 8C18.9429 8 17.932 8.35698 16.3029 8.9314L15.4827 9.22209C13.8118 9.81047 12.5211 10.2663 11.5983 10.6523C11.1334 10.8465 10.7329 11.036 10.4114 11.2279C10.1011 11.414 9.79087 11.6453 9.5799 11.9558C9.37118 12.2616 9.26287 12.6384 9.19518 13.0023C9.1241 13.3791 9.08236 13.8314 9.05415 14.3512C9 15.3814 9 16.7953 9 18.6279V20.4895C9 27.5837 14.1988 30.9849 17.2901 32.3779L17.3205 32.3907C17.7041 32.564 18.0651 32.7256 18.4792 32.8349C18.9158 32.9512 19.3806 33 20 33C20.6205 33 21.0831 32.9512 21.5208 32.8349C21.9349 32.7256 22.2959 32.564 22.6784 32.3907L22.7099 32.3779C25.8012 30.9849 31 27.5837 31 20.4895V18.6279C31 16.7953 31 15.3814 30.9458 14.35C30.9277 13.8977 30.8806 13.4471 30.8048 13.0012C30.7371 12.6384 30.6288 12.2616 30.4212 11.9547C30.2091 11.6453 29.8989 11.414 29.5886 11.2279C29.2061 11.0085 28.8096 10.8162 28.4017 10.6523C27.4789 10.2663 26.1882 9.81047 24.5173 9.22209L23.6971 8.9314C22.068 8.35698 21.0571 8 20 8ZM16.7056 10.6326C18.5277 9.9907 19.2576 9.74419 20 9.74419C20.7424 9.74419 21.4723 9.9907 23.2944 10.6326L23.9397 10.8605C25.6467 11.4628 26.8911 11.9023 27.7643 12.2674C28.2009 12.4512 28.5168 12.6047 28.7391 12.7372C28.8485 12.8023 28.9241 12.8558 28.9737 12.8988C29.0166 12.9337 29.0335 12.9547 29.0358 12.957C29.0506 12.9844 29.0627 13.0132 29.0719 13.043C29.0945 13.1081 29.1193 13.2012 29.143 13.3314C29.204 13.6998 29.2417 14.0719 29.2558 14.4453C29.3077 15.4233 29.3077 16.7884 29.3077 18.6593V20.4895C29.3077 26.5081 24.9415 29.4698 22.0319 30.7791C21.6133 30.9674 21.3708 31.0744 21.1011 31.1453C20.8439 31.214 20.5303 31.2558 20 31.2558C19.4697 31.2558 19.1561 31.214 18.8989 31.1453C18.6281 31.0756 18.3867 30.9674 17.9681 30.7791C15.0573 29.4698 10.6923 26.507 10.6923 20.4895V18.6593C10.6923 16.7884 10.6923 15.4233 10.7442 14.4453C10.7583 14.0719 10.796 13.6998 10.857 13.3314C10.8807 13.2012 10.9055 13.1081 10.9281 13.043C10.9484 12.9849 10.9619 12.9616 10.9642 12.957C10.983 12.9356 11.0038 12.9161 11.0263 12.8988C11.1001 12.8382 11.1786 12.7838 11.2609 12.736C11.4832 12.6035 11.7991 12.4512 12.2357 12.2686C13.1089 11.9023 14.3533 11.4628 16.0603 10.8616L16.7056 10.6326Z" fill="#01337C"/>
</svg>
