<svg width="110" height="123" viewBox="0 0 110 123" fill="none" xmlns="http://www.w3.org/2000/svg">
<g clip-path="url(#clip0_971_212)">
<path fill-rule="evenodd" clip-rule="evenodd" d="M2.347 9.633H40.644V3.76C40.644 1.692 42.333 0 44.404 0H65.548C67.618 0 69.308 1.691 69.308 3.76V9.634H107.138C108.431 9.634 109.485 10.691 109.485 11.983V23.497H0V11.982C0 10.69 1.055 9.633 2.347 9.633ZM8.69 29.605H101.611C103.548 29.605 105.307 31.204 105.132 33.129L97.268 119.358C97.094 121.284 95.678 122.879 93.745 122.879H16.445C14.511 122.879 13.093 121.287 12.921 119.358L5.166 33.129C4.994 31.197 6.751 29.605 8.69 29.605ZM69.077 42.998H78.943V108.312H69.077V42.998ZM30.072 42.998H39.939V108.312H30.072V42.998ZM49.572 42.998H59.441V108.312H49.572V42.998Z" fill="#FF1A1A"/>
</g>
<defs>
<clipPath id="clip0_971_212">
<rect width="109.484" height="122.88" fill="white"/>
</clipPath>
</defs>
</svg>
