<svg width="20" height="20" viewBox="0 0 20 20" fill="none" xmlns="http://www.w3.org/2000/svg">
<path d="M10 2C14.41 2 18 5.59 18 10C18 14.41 14.41 18 10 18C5.59 18 2 14.41 2 10C2 5.59 5.59 2 10 2ZM10 0C4.5 0 0 4.5 0 10C0 15.5 4.5 20 10 20C15.5 20 20 15.5 20 10C20 4.5 15.5 0 10 0ZM10 9C9.45 9 9 9.45 9 10C9 10.55 9.45 11 10 11C10.55 11 11 10.55 11 10C11 9.45 10.55 9 10 9ZM8.72 7.3C9.11 7.11 9.54 7 10 7C10.46 7 10.89 7.11 11.29 7.3L12 6.57C11.43 6.22 10.74 6 10 6C9.26 6 8.58 6.22 8 6.57L8.72 7.3ZM13 10C13 10.46 12.89 10.89 12.7 11.29L13.43 12C13.79 11.43 14 10.74 14 10C14 9.26 13.79 8.58 13.43 8L12.7 8.72C12.89 9.11 13 9.54 13 10ZM7 10C7 9.54 7.11 9.11 7.3 8.72L6.57 8C6.22 8.58 6 9.26 6 10C6 10.74 6.22 11.43 6.57 12L7.3 11.29C7.11 10.89 7 10.46 7 10ZM11.29 12.7C10.89 12.89 10.46 13 10 13C9.54 13 9.11 12.89 8.72 12.7L8 13.43C8.58 13.79 9.26 14 10 14C10.74 14 11.43 13.79 12 13.43L11.29 12.7ZM14.89 6.53L14.17 7.25C14.69 8.04 15 9 15 10C15 11 14.69 11.96 14.17 12.75L14.89 13.47C15.59 12.5 16 11.3 16 10C16 8.7 15.59 7.5 14.89 6.53ZM7.25 5.83C8.04 5.31 9 5 10 5C11 5 11.96 5.31 12.75 5.83L13.47 5.11C12.457 4.3879 11.244 3.99981 10 3.99981C8.75599 3.99981 7.54298 4.3879 6.53 5.11L7.25 5.83ZM12.75 14.17C11.96 14.69 11 15 10 15C9 15 8.04 14.69 7.25 14.17L6.53 14.89C7.5 15.59 8.7 16 10 16C11.3 16 12.5 15.59 13.47 14.89L12.75 14.17ZM5.83 12.75C5.31 11.96 5 11 5 10C5 9 5.31 8.04 5.83 7.25L5.11 6.53C4.3879 7.54298 3.99981 8.75599 3.99981 10C3.99981 11.244 4.3879 12.457 5.11 13.47L5.83 12.75Z" fill="#01337C"/>
</svg>
