<svg width="40" height="41" viewBox="0 0 40 41" fill="none" xmlns="http://www.w3.org/2000/svg">
<rect y="0.5" width="40" height="40" rx="4" fill="#C0D9FF"/>
<path d="M7 11.25C7 10.388 7.34241 9.5614 7.9519 8.9519C8.5614 8.34241 9.38805 8 10.25 8H29.75C30.612 8 31.4386 8.34241 32.0481 8.9519C32.6576 9.5614 33 10.388 33 11.25V30.75C33 31.612 32.6576 32.4386 32.0481 33.0481C31.4386 33.6576 30.612 34 29.75 34H10.25C9.38805 34 8.5614 33.6576 7.9519 33.0481C7.34241 32.4386 7 31.612 7 30.75V11.25Z" stroke="#01337C" stroke-width="1.5" stroke-linecap="round" stroke-linejoin="round"/>
<path d="M7 16.125H16.75L18.375 12.875L21.625 19.375L23.25 16.125H33M7 24.25H33M23.25 29.125V29.1413M28.125 29.125V29.1413" stroke="#01337C" stroke-width="1.5" stroke-linecap="round" stroke-linejoin="round"/>
</svg>
