<svg width="20" height="21" viewBox="0 0 20 21" fill="none" xmlns="http://www.w3.org/2000/svg">
<path d="M10 18.0003C8.2875 18.0003 6.8595 17.3977 5.716 16.1926C4.5725 14.9875 4.0005 13.4875 4 11.6926C4 10.8977 4.175 10.1028 4.525 9.30797C4.875 8.5131 5.3125 7.75028 5.8375 7.01951C6.3625 6.28874 6.93125 5.60285 7.54375 4.96182C8.15625 4.3208 8.725 3.7631 9.25 3.28874C9.35 3.18618 9.46575 3.11259 9.59725 3.06798C9.72875 3.02336 9.863 3.0008 10 3.00028C10.137 2.99977 10.2715 3.02233 10.4035 3.06798C10.5355 3.11362 10.651 3.18721 10.75 3.28874C11.275 3.7631 11.8437 4.3208 12.4562 4.96182C13.0687 5.60285 13.6375 6.28874 14.1625 7.01951C14.6875 7.75028 15.125 8.5131 15.475 9.30797C15.825 10.1028 16 10.8977 16 11.6926C16 13.4875 15.4282 14.9875 14.2847 16.1926C13.1412 17.3977 11.713 18.0003 10 18.0003ZM11.875 14.9234C12.1875 14.9234 12.4532 14.8113 12.6722 14.5872C12.8912 14.3631 13.0005 14.0905 13 13.7695C12.9995 13.4485 12.8903 13.1762 12.6722 12.9526C12.4542 12.729 12.1885 12.6167 11.875 12.6157C11.5615 12.6146 11.296 12.7269 11.0785 12.9526C10.861 13.1782 10.7515 13.4505 10.75 13.7695C10.7485 14.0885 10.858 14.361 11.0785 14.5872C11.299 14.8134 11.5645 14.9254 11.875 14.9234ZM7.5625 14.3464C7.7125 14.5003 7.8875 14.5772 8.0875 14.5772C8.2875 14.5772 8.4625 14.5003 8.6125 14.3464L12.4375 10.4234C12.5875 10.2695 12.6625 10.09 12.6625 9.88489C12.6625 9.67977 12.5875 9.50028 12.4375 9.34643C12.2875 9.19259 12.1095 9.11566 11.9035 9.11566C11.6975 9.11566 11.5192 9.19259 11.3687 9.34643L7.5625 13.2503C7.4125 13.4041 7.3375 13.5869 7.3375 13.7987C7.3375 14.0105 7.4125 14.1931 7.5625 14.3464ZM8.125 11.0772C8.4375 11.0772 8.70325 10.9652 8.92225 10.741C9.14125 10.5169 9.2505 10.2444 9.25 9.92336C9.2495 9.60233 9.14025 9.33002 8.92225 9.10643C8.70425 8.88284 8.4385 8.77054 8.125 8.76951C7.8115 8.76848 7.546 8.88079 7.3285 9.10643C7.111 9.33207 7.0015 9.60438 7 9.92336C6.9985 10.2423 7.108 10.5149 7.3285 10.741C7.549 10.9672 7.8145 11.0793 8.125 11.0772Z" fill="#01337C"/>
</svg>
