<svg width="21" height="21" viewBox="0 0 21 21" fill="none" xmlns="http://www.w3.org/2000/svg">
<path d="M11.409 0.512991C10.5054 0.14663 9.49461 0.14663 8.591 0.512991L6.401 1.40099L15.993 5.13099L19.367 3.82799C19.2287 3.71321 19.0736 3.62045 18.907 3.55299L11.409 0.512991ZM20 5.19099L10.75 8.76499V15.606L16.393 9.96299C16.856 9.50007 17.4466 9.18594 18.0892 9.06087C18.7319 8.9358 19.3972 9.00548 20 9.26099V5.19099ZM9.25 8.76499V18.662L9.063 19.409C9.04438 19.4832 9.02969 19.5583 9.019 19.634C8.87353 19.5944 8.7306 19.5459 8.591 19.489L1.093 16.449C0.770033 16.3182 0.493473 16.0939 0.298748 15.8049C0.104022 15.516 -2.02553e-06 15.1754 0 14.827V5.19199L9.25 8.76499ZM0.633 3.82799L10 7.44699L13.917 5.93299L4.374 2.22299L1.093 3.55299C0.923 3.62199 0.769 3.71499 0.633 3.82799ZM17.1 10.67L11.197 16.573C10.8531 16.9171 10.6091 17.3481 10.491 17.82L10.033 19.651C9.98745 19.8332 9.98987 20.024 10.04 20.205C10.0902 20.386 10.1864 20.5508 10.3192 20.6836C10.452 20.8163 10.617 20.9124 10.798 20.9624C10.979 21.0124 11.1699 21.0147 11.352 20.969L13.182 20.512C13.6544 20.3938 14.0858 20.1494 14.43 19.805L20.332 13.903C20.7498 13.4721 20.9813 12.8943 20.9768 12.2942C20.9722 11.6941 20.7318 11.1199 20.3075 10.6955C19.8832 10.2711 19.3091 10.0305 18.709 10.0257C18.1089 10.021 17.531 10.2524 17.1 10.67Z" fill="#01337C"/>
</svg>
