<svg width="24" height="24" viewBox="0 0 24 24" fill="none" xmlns="http://www.w3.org/2000/svg">
<rect width="24" height="24" fill="#1E1E1E"/>
<g id="Admin">
<rect width="1920" height="1080" transform="translate(-1838 -257)" fill="#EDF1F7"/>
<g id="Body">
<rect width="1644" height="1016" transform="translate(-1562 -193)" fill="#D8DFEA"/>
<g id="List">
<g clip-path="url(#clip0_0_1)">
<rect x="-1538" y="-169" width="1594" height="937" rx="8" fill="#EDF1F7"/>
<g id="Data">
<rect width="1594" height="873" transform="translate(-1538 -105)" fill="#EDF1F7"/>
<g id="List 3">
<g clip-path="url(#clip1_0_1)">
<g id="Device 1">
<rect x="-1522" y="-24" width="1562" height="72" rx="6" fill="white"/>
<g id="edit-icon">
<path id="Vector" d="M3 17.46V20.5C3 20.78 3.22 21 3.5 21H6.54C6.67 21 6.8 20.95 6.89 20.85L17.81 9.94L14.06 6.19L3.15 17.1C3.05 17.2 3 17.32 3 17.46ZM20.71 7.04C20.8027 6.94749 20.8762 6.8376 20.9264 6.71663C20.9766 6.59565 21.0024 6.46597 21.0024 6.335C21.0024 6.20403 20.9766 6.07435 20.9264 5.95338C20.8762 5.83241 20.8027 5.72252 20.71 5.63L18.37 3.29C18.2775 3.1973 18.1676 3.12375 18.0466 3.07357C17.9257 3.02339 17.796 2.99756 17.665 2.99756C17.534 2.99756 17.4043 3.02339 17.2834 3.07357C17.1624 3.12375 17.0525 3.1973 16.96 3.29L15.13 5.12L18.88 8.87L20.71 7.04Z" fill="#01337C"/>
</g>
</g>
</g>
</g>
</g>
</g>
</g>
</g>
</g>
<defs>
<clipPath id="clip0_0_1">
<rect x="-1538" y="-169" width="1594" height="937" rx="8" fill="white"/>
</clipPath>
<clipPath id="clip1_0_1">
<rect x="-1522" y="-24" width="1562" height="72" rx="6" fill="white"/>
</clipPath>
</defs>
</svg>
