<svg width="20" height="20" viewBox="0 0 20 20" fill="none" xmlns="http://www.w3.org/2000/svg">
<path d="M16.6665 3.33337H3.33317C2.4165 3.33337 1.67484 4.08337 1.67484 5.00004L1.6665 15C1.6665 15.9167 2.4165 16.6667 3.33317 16.6667H16.6665C17.5832 16.6667 18.3332 15.9167 18.3332 15V5.00004C18.3332 4.08337 17.5832 3.33337 16.6665 3.33337ZM16.3332 6.87504L10.4415 10.5584C10.1748 10.725 9.82484 10.725 9.55817 10.5584L3.6665 6.87504C3.58294 6.82813 3.50977 6.76476 3.45141 6.68875C3.39305 6.61275 3.35072 6.52569 3.32698 6.43285C3.30324 6.34001 3.29859 6.24332 3.3133 6.14863C3.32801 6.05394 3.36178 5.96322 3.41257 5.88196C3.46336 5.8007 3.53011 5.73059 3.60878 5.67587C3.68744 5.62115 3.7764 5.58297 3.87025 5.56362C3.9641 5.54428 4.06091 5.54418 4.1548 5.56333C4.24869 5.58248 4.33772 5.62049 4.4165 5.67504L9.99984 9.16671L15.5832 5.67504C15.662 5.62049 15.751 5.58248 15.8449 5.56333C15.9388 5.54418 16.0356 5.54428 16.1294 5.56362C16.2233 5.58297 16.3122 5.62115 16.3909 5.67587C16.4696 5.73059 16.5363 5.8007 16.5871 5.88196C16.6379 5.96322 16.6717 6.05394 16.6864 6.14863C16.7011 6.24332 16.6964 6.34001 16.6727 6.43285C16.649 6.52569 16.6066 6.61275 16.5483 6.68875C16.4899 6.76476 16.4167 6.82813 16.3332 6.87504Z" fill="#01337C"/>
</svg>
