<svg width="16" height="16" viewBox="0 0 16 16" fill="none" xmlns="http://www.w3.org/2000/svg">
<path d="M5.99996 3.33338C5.82315 3.33338 5.65358 3.40362 5.52855 3.52864C5.40353 3.65367 5.33329 3.82324 5.33329 4.00005C5.33329 4.17686 5.40353 4.34643 5.52855 4.47145C5.65358 4.59648 5.82315 4.66671 5.99996 4.66671C6.17677 4.66671 6.34634 4.59648 6.47136 4.47145C6.59639 4.34643 6.66663 4.17686 6.66663 4.00005C6.66663 3.82324 6.59639 3.65367 6.47136 3.52864C6.34634 3.40362 6.17677 3.33338 5.99996 3.33338ZM4.11329 3.33338C4.25103 2.94302 4.50645 2.605 4.84436 2.36591C5.18227 2.12681 5.58602 1.99841 5.99996 1.99841C6.4139 1.99841 6.81765 2.12681 7.15556 2.36591C7.49347 2.605 7.74889 2.94302 7.88662 3.33338H12.6666C12.8434 3.33338 13.013 3.40362 13.138 3.52864C13.2631 3.65367 13.3333 3.82324 13.3333 4.00005C13.3333 4.17686 13.2631 4.34643 13.138 4.47145C13.013 4.59648 12.8434 4.66671 12.6666 4.66671H7.88662C7.74889 5.05707 7.49347 5.39509 7.15556 5.63419C6.81765 5.87328 6.4139 6.00168 5.99996 6.00168C5.58602 6.00168 5.18227 5.87328 4.84436 5.63419C4.50645 5.39509 4.25103 5.05707 4.11329 4.66671H3.33329C3.15648 4.66671 2.98691 4.59648 2.86189 4.47145C2.73686 4.34643 2.66663 4.17686 2.66663 4.00005C2.66663 3.82324 2.73686 3.65367 2.86189 3.52864C2.98691 3.40362 3.15648 3.33338 3.33329 3.33338H4.11329ZM9.99996 7.33338C9.82315 7.33338 9.65358 7.40362 9.52855 7.52864C9.40353 7.65367 9.33329 7.82324 9.33329 8.00005C9.33329 8.17686 9.40353 8.34643 9.52855 8.47145C9.65358 8.59648 9.82315 8.66671 9.99996 8.66671C10.1768 8.66671 10.3463 8.59648 10.4714 8.47145C10.5964 8.34643 10.6666 8.17686 10.6666 8.00005C10.6666 7.82324 10.5964 7.65367 10.4714 7.52864C10.3463 7.40362 10.1768 7.33338 9.99996 7.33338ZM8.11329 7.33338C8.25103 6.94303 8.50645 6.605 8.84436 6.36591C9.18226 6.12681 9.58602 5.99841 9.99996 5.99841C10.4139 5.99841 10.8177 6.12681 11.1556 6.36591C11.4935 6.605 11.7489 6.94303 11.8866 7.33338H12.6666C12.8434 7.33338 13.013 7.40362 13.138 7.52864C13.2631 7.65367 13.3333 7.82324 13.3333 8.00005C13.3333 8.17686 13.2631 8.34643 13.138 8.47145C13.013 8.59648 12.8434 8.66671 12.6666 8.66671H11.8866C11.7489 9.05707 11.4935 9.39509 11.1556 9.63419C10.8177 9.87328 10.4139 10.0017 9.99996 10.0017C9.58602 10.0017 9.18226 9.87328 8.84436 9.63419C8.50645 9.39509 8.25103 9.05707 8.11329 8.66671H3.33329C3.15648 8.66671 2.98691 8.59648 2.86189 8.47145C2.73686 8.34643 2.66663 8.17686 2.66663 8.00005C2.66663 7.82324 2.73686 7.65367 2.86189 7.52864C2.98691 7.40362 3.15648 7.33338 3.33329 7.33338H8.11329ZM5.99996 11.3334C5.82315 11.3334 5.65358 11.4036 5.52855 11.5286C5.40353 11.6537 5.33329 11.8232 5.33329 12C5.33329 12.1769 5.40353 12.3464 5.52855 12.4715C5.65358 12.5965 5.82315 12.6667 5.99996 12.6667C6.17677 12.6667 6.34634 12.5965 6.47136 12.4715C6.59639 12.3464 6.66663 12.1769 6.66663 12C6.66663 11.8232 6.59639 11.6537 6.47136 11.5286C6.34634 11.4036 6.17677 11.3334 5.99996 11.3334ZM4.11329 11.3334C4.25103 10.943 4.50645 10.605 4.84436 10.3659C5.18227 10.1268 5.58602 9.99841 5.99996 9.99841C6.4139 9.99841 6.81765 10.1268 7.15556 10.3659C7.49347 10.605 7.74889 10.943 7.88662 11.3334H12.6666C12.8434 11.3334 13.013 11.4036 13.138 11.5286C13.2631 11.6537 13.3333 11.8232 13.3333 12C13.3333 12.1769 13.2631 12.3464 13.138 12.4715C13.013 12.5965 12.8434 12.6667 12.6666 12.6667H7.88662C7.74889 13.0571 7.49347 13.3951 7.15556 13.6342C6.81765 13.8733 6.4139 14.0017 5.99996 14.0017C5.58602 14.0017 5.18227 13.8733 4.84436 13.6342C4.50645 13.3951 4.25103 13.0571 4.11329 12.6667H3.33329C3.15648 12.6667 2.98691 12.5965 2.86189 12.4715C2.73686 12.3464 2.66663 12.1769 2.66663 12C2.66663 11.8232 2.73686 11.6537 2.86189 11.5286C2.98691 11.4036 3.15648 11.3334 3.33329 11.3334H4.11329Z" fill="#31353B"/>
</svg>
