<svg width="24" height="24" viewBox="0 0 24 24" fill="none" xmlns="http://www.w3.org/2000/svg">
<g clip-path="url(#clip0_1_782)">
<circle cx="12" cy="12" r="11.25" fill="#F05348" stroke="#F05348" stroke-width="1.5"/>
<path d="M16.3007 14.4805L16.3009 14.4795C16.3146 14.4002 16.3122 14.319 16.2937 14.2407C16.2753 14.1623 16.2412 14.0884 16.1935 14.0231C16.1459 13.9579 16.0856 13.9026 16.0163 13.8603C15.947 13.8179 15.8699 13.7894 15.7895 13.7762C15.7091 13.763 15.6268 13.7653 15.5473 13.783C15.4677 13.8008 15.3925 13.8336 15.3257 13.8798C15.191 13.9731 15.0991 14.1152 15.0712 14.2754C14.8215 15.7094 13.5695 16.9309 12.0946 17.1723C11.9407 17.197 11.8014 17.2773 11.7047 17.3981C11.608 17.519 11.5613 17.6713 11.5745 17.8248C11.5878 17.9783 11.6599 18.1207 11.7756 18.2239C11.8913 18.3271 12.0421 18.3837 12.1981 18.3831L12.1985 18.3831C12.2323 18.3828 12.2661 18.3802 12.2996 18.3752L12.2996 18.3752L12.302 18.3748C13.2966 18.2015 14.2132 17.7357 14.9282 17.0396C15.6432 16.3434 16.1224 15.4504 16.3007 14.4805ZM11.8145 3.29979L11.9081 3.33487L11.8145 3.29979L9.85367 8.53402L7.66653 6.46776C7.66645 6.46768 7.66636 6.4676 7.66628 6.46752C7.60292 6.40694 7.52719 6.36037 7.44421 6.33077C7.36113 6.30112 7.27259 6.28912 7.18447 6.29551C7.09635 6.30189 7.01054 6.32653 6.93277 6.36789C6.85509 6.40919 6.78715 6.46627 6.73359 6.53545C4.85778 8.92756 3.9 11.3378 3.9 13.6983C3.9 15.6622 4.70138 17.5451 6.12694 18.933C7.55241 20.3208 9.48521 21.1 11.5 21.1C13.5148 21.1 15.4476 20.3208 16.8731 18.933C18.2986 17.5451 19.1 15.6622 19.1 13.6983C19.1 11.1813 17.9912 8.89662 16.6533 7.05486C15.3149 5.21239 13.7412 3.80481 12.797 3.03982L12.7969 3.03975C12.72 2.97758 12.6291 2.93447 12.5318 2.91385C12.4346 2.89323 12.3338 2.89566 12.2377 2.92094C12.1416 2.94623 12.053 2.99369 11.9793 3.05953C11.9056 3.12539 11.849 3.20775 11.8145 3.29979ZM9.67138 10.0614L9.67138 10.0614C9.74612 10.1322 9.83763 10.1833 9.93745 10.2105C10.0373 10.2378 10.1424 10.2402 10.2435 10.2177C10.3445 10.1951 10.4383 10.1483 10.5164 10.0812C10.5945 10.014 10.6543 9.92871 10.6902 9.83284C10.6902 9.83283 10.6902 9.83281 10.6902 9.83279L12.6706 4.54603C13.6328 5.39096 14.9001 6.65078 15.941 8.1876C17.0217 9.78342 17.8535 11.6708 17.8535 13.6983C17.8535 15.3372 17.1848 16.9095 15.9935 18.0693C14.8022 19.2291 13.1859 19.8812 11.5 19.8812C9.8141 19.8812 8.19777 19.2291 7.00645 18.0693C5.81523 16.9095 5.14651 15.3372 5.14651 13.6983C5.14651 11.8012 5.86987 9.82624 7.31218 7.82857L9.67138 10.0614Z" fill="white" stroke="white" stroke-width="0.2"/>
</g>
<defs>
<clipPath id="clip0_1_782">
<rect width="24" height="24" fill="white"/>
</clipPath>
</defs>
</svg>
