<svg width="17" height="22" viewBox="0 0 17 22" fill="none" xmlns="http://www.w3.org/2000/svg">
<path d="M10.7003 0.559165C10.7003 4.11542 12.5159 5.90307 14.0799 7.60245C15.5759 9.22759 17 10.7755 17 13.7238C17 18.5511 13.3542 22 8.67971 22C4.00423 22 0 18.5681 0 13.7238C0 11.6783 0.934514 9.70009 2.43731 8.80927C2.7336 8.63371 3.09011 8.81629 3.21737 9.14433C4.18977 11.6513 5.38851 11.6071 6.01023 10.9651C6.38714 10.5769 6.4668 9.84555 6.00634 8.89654C3.67006 4.06927 7.81611 0.591266 10.0863 0.0144413C10.4127 -0.0678189 10.6838 0.21307 10.7003 0.559165ZM8.67971 20.4952C12.6227 20.4952 15.5429 17.6462 15.5429 13.7238C15.5429 11.3794 14.4811 10.2237 12.9414 8.54945L12.921 8.52637C11.5221 7.00456 9.87166 5.16474 9.37623 1.94856C8.64271 2.39381 8.00978 2.99578 7.51983 3.71415C6.75531 4.86178 6.4056 6.3555 7.31 8.22341C7.89577 9.43224 8.0648 10.9721 7.04091 12.0295C6.40269 12.6885 5.32926 13.1329 4.16937 12.6173C3.43886 12.2923 2.85503 11.6593 2.38389 10.8216C1.83309 11.5299 1.45714 12.5672 1.45714 13.7238C1.45714 17.583 4.6512 20.4952 8.67971 20.4952Z" fill="white"/>
</svg>
