<svg width="24" height="24" viewBox="0 0 24 24" fill="none" xmlns="http://www.w3.org/2000/svg">
<path d="M9.07941 11.5579L9.0794 11.558C9.0297 12.0083 8.952 12.8785 8.952 14.014V14.0143C8.94951 14.8346 8.99204 15.6545 9.07941 16.4701L9.07941 11.5579ZM9.07941 11.5579C9.09874 11.3812 9.15942 11.2115 9.25651 11.0627C9.3536 10.9138 9.48439 10.7899 9.63828 10.7009C9.79217 10.612 9.96484 10.5606 10.1423 10.5508C10.3197 10.541 10.4969 10.5731 10.6596 10.6445C11.4097 10.9764 12.1409 11.3496 12.8497 11.7624L12.8503 11.7628M9.07941 11.5579L12.8503 11.7628M12.8503 11.7628C13.5631 12.1708 14.2526 12.6181 14.9157 13.1025C15.5295 13.5566 15.5313 14.4704 14.9159 14.9253C14.2525 15.409 13.563 15.8556 12.8504 16.2632L12.85 16.2634M12.8503 11.7628L12.85 16.2634M12.85 16.2634C11.8568 16.8372 11.0722 17.2026 10.66 17.3823L10.6597 17.3825M12.85 16.2634L10.6597 17.3825M10.6597 17.3825C10.497 17.4541 10.3198 17.4864 10.1423 17.4768M10.6597 17.3825L10.1423 17.4768M10.1423 17.4768C9.96487 17.4671 9.79217 17.4158 9.63825 17.3269M10.1423 17.4768L9.63825 17.3269M9.63825 17.3269C9.48434 17.2381 9.35353 17.1142 9.25643 16.9653M9.63825 17.3269L9.25643 16.9653M9.25643 16.9653C9.15937 16.8165 9.09873 16.647 9.07943 16.4703L9.25643 16.9653ZM11.7167 6.5457L15.6067 2.65571C15.6067 2.65571 15.6067 2.65571 15.6067 2.6557C15.7755 2.48699 16.0044 2.39221 16.243 2.39221C16.4814 2.39221 16.7103 2.4878 16.8793 2.65669C17.048 2.82547 17.1428 3.05434 17.1428 3.29299C17.1428 3.53164 17.048 3.76051 16.8793 3.92928C16.8793 3.92929 16.8793 3.92929 16.8793 3.92929L13.8793 6.92928L13.7086 7.09999H13.95H19C19.5039 7.09999 19.9872 7.30017 20.3435 7.65649C20.6998 8.01281 20.9 8.49608 20.9 8.99999V19C20.9 19.5039 20.6998 19.9872 20.3435 20.3435C19.9872 20.6998 19.5039 20.9 19 20.9H5C4.49609 20.9 4.01282 20.6998 3.6565 20.3435C3.30018 19.9872 3.1 19.5039 3.1 19V8.99999C3.1 8.49608 3.30018 8.01281 3.6565 7.65649C4.01282 7.30017 4.49609 7.09999 5 7.09999H8.636H8.87742L8.70671 6.92928L7.12074 5.34331C7.12073 5.3433 7.12072 5.34329 7.12071 5.34328C6.95197 5.1744 6.85721 4.94541 6.8573 4.70667C6.85738 4.46793 6.95231 4.23899 7.12119 4.07023C7.29007 3.90147 7.51907 3.80671 7.75782 3.80679C7.99657 3.80687 8.2255 3.9018 8.39426 4.07068L8.39428 4.07069L10.8683 6.54569L10.8683 6.54571C10.9808 6.6582 11.1334 6.72139 11.2925 6.72139C11.4516 6.72139 11.6042 6.6582 11.7167 6.54571L11.7167 6.5457ZM19.1 8.99999V8.89999H19H5H4.9V8.99999V19V19.1H5H19H19.1V19V8.99999ZM10.9275 12.7639L10.7901 12.6937L10.7821 12.8478C10.7421 13.6241 10.7421 14.4019 10.7821 15.1781L10.7901 15.3324L10.9276 15.262C11.619 14.9078 12.2921 14.5189 12.9443 14.097L13.074 14.0131L12.9444 13.9291C12.2925 13.5064 11.6193 13.1175 10.9275 12.7639Z" fill="#01337C" stroke="white" stroke-width="0.2"/>
</svg>
