<svg width="16" height="16" viewBox="0 0 16 16" fill="none" xmlns="http://www.w3.org/2000/svg">
<path opacity="0.5" d="M8 5.3335V8.00016L9.66667 9.66683" stroke="#01337C" stroke-width="1.5" stroke-linecap="round" stroke-linejoin="round"/>
<path d="M2.89206 4.58076L2.39206 4.58276C2.39259 4.71456 2.44514 4.84082 2.53827 4.93408C2.63141 5.02734 2.7576 5.08005 2.8894 5.08076L2.89206 4.58076ZM4.58673 5.08876C4.65239 5.08906 4.71747 5.07643 4.77825 5.05159C4.83903 5.02674 4.89432 4.99017 4.94097 4.94396C4.98761 4.89775 5.0247 4.8428 5.05011 4.78225C5.07552 4.72171 5.08876 4.65675 5.08906 4.59109C5.08937 4.52543 5.07674 4.46035 5.0519 4.39957C5.02705 4.33879 4.99048 4.2835 4.94427 4.23685C4.89806 4.19021 4.84311 4.15312 4.78256 4.12771C4.72202 4.1023 4.65706 4.08906 4.5914 4.08876L4.58673 5.08876ZM3.3834 2.88076C3.38305 2.81509 3.36977 2.75015 3.34432 2.68962C3.31887 2.62909 3.28174 2.57416 3.23507 2.52798C3.18839 2.4818 3.13307 2.44527 3.07228 2.42046C3.01148 2.39566 2.94639 2.38307 2.88073 2.38342C2.81507 2.38377 2.75012 2.39705 2.68959 2.4225C2.62906 2.44795 2.57414 2.48508 2.52796 2.53175C2.48178 2.57843 2.44524 2.63375 2.42044 2.69454C2.39563 2.75534 2.38305 2.82043 2.3834 2.88609L3.3834 2.88076ZM2.5514 7.19009C2.56098 7.12474 2.55752 7.05814 2.54121 6.99414C2.52491 6.93014 2.49609 6.87 2.45642 6.8172C2.41674 6.7644 2.367 6.71998 2.31006 6.68652C2.25312 6.65305 2.19012 6.63119 2.12469 6.62221C2.05926 6.61322 1.99269 6.61729 1.92884 6.63418C1.86499 6.65107 1.80512 6.68044 1.75269 6.72059C1.70025 6.76075 1.65629 6.8109 1.62334 6.86814C1.5904 6.92538 1.56912 6.98858 1.56073 7.05409L2.5514 7.19009ZM12.5747 3.42542C10.0281 0.878756 5.91273 0.852089 3.38273 3.38276L4.0894 4.08942C6.22273 1.95676 9.70473 1.96942 11.8681 4.13209L12.5747 3.42542ZM3.4254 12.5748C5.97206 15.1214 10.0874 15.1481 12.6174 12.6174L11.9107 11.9108C9.7774 14.0434 6.2954 14.0308 4.13206 11.8681L3.4254 12.5748ZM12.6174 12.6174C15.1474 10.0874 15.1214 5.97209 12.5747 3.42542L11.8681 4.13209C14.0307 6.29542 14.0434 9.77742 11.9107 11.9108L12.6174 12.6174ZM3.38273 3.38276L2.53806 4.22676L3.2454 4.93342L4.0894 4.08942L3.38273 3.38276ZM2.8894 5.08076L4.58673 5.08876L4.5914 4.08876L2.89473 4.08076L2.8894 5.08076ZM3.39206 4.57809L3.3834 2.88076L2.3834 2.88609L2.39206 4.58276L3.39206 4.57809ZM1.56006 7.05342C1.42309 8.05514 1.52018 9.07498 1.84372 10.0329C2.16725 10.9907 2.70842 11.8606 3.42473 12.5741L4.1314 11.8674C3.52421 11.2629 3.06547 10.5259 2.7912 9.71422C2.51694 8.90253 2.43462 8.03829 2.55073 7.18942L1.56006 7.05342Z" fill="#01337C"/>
</svg>
