<svg width="24" height="24" viewBox="0 0 24 24" fill="none" xmlns="http://www.w3.org/2000/svg">
<path d="M14.5 18C14.9167 18 15.271 17.8543 15.563 17.563C15.855 17.2717 16.0007 16.9173 16 16.5C16 16.0833 15.8543 15.7293 15.563 15.438C15.2717 15.1467 14.9173 15.0007 14.5 15C14.0833 15 13.7293 15.146 13.438 15.438C13.1467 15.73 13.0007 16.084 13 16.5C13 16.9167 13.146 17.271 13.438 17.563C13.73 17.855 14.084 18.0007 14.5 18ZM9.45 17.95L15.95 11.45L14.55 10.05L8.05 16.55L9.45 17.95ZM9.5 13C9.91667 13 10.271 12.8543 10.563 12.563C10.855 12.2717 11.0007 11.9173 11 11.5C11 11.0833 10.8543 10.7293 10.563 10.438C10.2717 10.1467 9.91733 10.0007 9.5 10C9.08333 10 8.72933 10.146 8.438 10.438C8.14667 10.73 8.00067 11.084 8 11.5C8 11.9167 8.146 12.271 8.438 12.563C8.73 12.855 9.084 13.0007 9.5 13ZM12 22C9.71667 22 7.81267 21.2167 6.288 19.65C4.76333 18.0833 4.00067 16.1333 4 13.8C4 12.1333 4.66267 10.321 5.988 8.363C7.31333 6.405 9.31733 4.284 12 2C14.6833 4.28333 16.6877 6.40433 18.013 8.363C19.3383 10.3217 20.0007 12.134 20 13.8C20 16.1333 19.2377 18.0833 17.713 19.65C16.1883 21.2167 14.284 22 12 22Z" fill="#00C17B"/>
</svg>
