<svg width="24" height="24" viewBox="0 0 24 24" fill="none" xmlns="http://www.w3.org/2000/svg">
<path d="M20.25 10.7625V12C20.25 15.889 20.25 17.8335 19.0413 19.0413C17.8344 20.25 15.889 20.25 12 20.25C8.11094 20.25 6.16642 20.25 4.9578 19.0413C3.75 17.8344 3.75 15.889 3.75 12C3.75 8.11094 3.75 6.16642 4.9578 4.9578C6.16725 3.75 8.11094 3.75 12 3.75H13.2375" stroke="white" stroke-linecap="round"/>
<path d="M17.775 8.69999C19.1419 8.69999 20.25 7.5919 20.25 6.225C20.25 4.85809 19.1419 3.75 17.775 3.75C16.4081 3.75 15.3 4.85809 15.3 6.225C15.3 7.5919 16.4081 8.69999 17.775 8.69999Z" stroke="white"/>
<path d="M7.875 13.65L9.76672 11.7582C9.92143 11.6036 10.1312 11.5167 10.35 11.5167C10.5688 11.5167 10.7786 11.6036 10.9333 11.7582L12.2417 13.0667C12.3964 13.2214 12.6062 13.3082 12.825 13.3082C13.0438 13.3082 13.2536 13.2214 13.4083 13.0667L16.125 10.35M16.125 10.35V12.4125M16.125 10.35H14.0625" stroke="white" stroke-linecap="round" stroke-linejoin="round"/>
</svg>
