<svg width="32" height="32" viewBox="0 0 32 32" fill="none" xmlns="http://www.w3.org/2000/svg">
<g clip-path="url(#clip0_1_1849)">
<path fill-rule="evenodd" clip-rule="evenodd" d="M20.9425 15.0573C21.1924 15.3074 21.3329 15.6464 21.3329 16C21.3329 16.3535 21.1924 16.6926 20.9425 16.9427L13.3998 24.4853C13.2768 24.6127 13.1297 24.7143 12.967 24.7841C12.8043 24.854 12.6294 24.8908 12.4523 24.8923C12.2753 24.8939 12.0997 24.8601 11.9359 24.7931C11.772 24.726 11.6231 24.627 11.4979 24.5019C11.3728 24.3767 11.2738 24.2278 11.2067 24.0639C11.1397 23.9001 11.1059 23.7245 11.1075 23.5475C11.109 23.3704 11.1458 23.1955 11.2157 23.0328C11.2855 22.8701 11.3871 22.723 11.5145 22.6L18.1145 16L11.5145 9.39999C11.2716 9.14853 11.1372 8.81172 11.1402 8.46213C11.1433 8.11253 11.2835 7.77812 11.5307 7.5309C11.7779 7.2837 12.1123 7.14347 12.4619 7.14043C12.8115 7.13739 13.1483 7.27178 13.3998 7.51466L20.9425 15.0573Z" fill="#01337C"/>
</g>
<defs>
<clipPath id="clip0_1_1849">
<rect width="32" height="32" fill="white" transform="matrix(0 -1 1 0 0 32)"/>
</clipPath>
</defs>
</svg>
