<svg width="24" height="24" viewBox="0 0 24 24" fill="none" xmlns="http://www.w3.org/2000/svg">
<path d="M6 7C6 6.20435 6.31607 5.44129 6.87868 4.87868C7.44129 4.31607 8.20435 4 9 4H10V3C10 2.73478 10.1054 2.48043 10.2929 2.29289C10.4804 2.10536 10.7348 2 11 2H13C13.2652 2 13.5196 2.10536 13.7071 2.29289C13.8946 2.48043 14 2.73478 14 3V4H15C15.7956 4 16.5587 4.31607 17.1213 4.87868C17.6839 5.44129 18 6.20435 18 7V19C18 19.7956 17.6839 20.5587 17.1213 21.1213C16.5587 21.6839 15.7956 22 15 22H9C8.20435 22 7.44129 21.6839 6.87868 21.1213C6.31607 20.5587 6 19.7956 6 19L6 7ZM7.5 7.002L7.5 19C7.50002 19.3729 7.63892 19.7324 7.88962 20.0084C8.14032 20.2844 8.48484 20.4572 8.856 20.493L9 20.5H15C15.3727 20.5 15.7321 20.3612 16.0081 20.1108C16.2841 19.8603 16.457 19.516 16.493 19.145L16.5 19V7.002C16.5 6.62927 16.3612 6.2699 16.1108 5.99389C15.8603 5.71789 15.516 5.54503 15.145 5.509L15 5.502H9C8.62727 5.502 8.2679 5.64076 7.99189 5.89125C7.71589 6.14174 7.54303 6.48602 7.507 6.857L7.5 7.002ZM9 18V13C9.00003 12.7551 9.08996 12.5187 9.25272 12.3356C9.41547 12.1526 9.63975 12.0357 9.883 12.007L10 12H14C14.2449 12 14.4813 12.09 14.6644 12.2527C14.8474 12.4155 14.9643 12.6397 14.993 12.883L15 13V18C15.0002 18.2451 14.9104 18.4818 14.7476 18.665C14.5848 18.8482 14.3604 18.9653 14.117 18.994L14 19H10C9.75507 19 9.51866 18.91 9.33563 18.7473C9.15259 18.5845 9.03566 18.3603 9.007 18.117L9 18Z" fill="white"/>
</svg>
