<svg width="24" height="24" viewBox="0 0 24 24" fill="none" xmlns="http://www.w3.org/2000/svg">
<path d="M9.25 3.75H4.66667C4.42355 3.75 4.19039 3.84658 4.01849 4.01849C3.84658 4.19039 3.75 4.42355 3.75 4.66667V9.25C3.75 9.49312 3.84658 9.72627 4.01849 9.89818C4.19039 10.0701 4.42355 10.1667 4.66667 10.1667H9.25C9.49312 10.1667 9.72627 10.0701 9.89818 9.89818C10.0701 9.72627 10.1667 9.49312 10.1667 9.25V4.66667C10.1667 4.42355 10.0701 4.19039 9.89818 4.01849C9.72627 3.84658 9.49312 3.75 9.25 3.75ZM9.25 13.8333H4.66667C4.42355 13.8333 4.19039 13.9299 4.01849 14.1018C3.84658 14.2737 3.75 14.5069 3.75 14.75V19.3333C3.75 19.5764 3.84658 19.8096 4.01849 19.9815C4.19039 20.1534 4.42355 20.25 4.66667 20.25H9.25C9.49312 20.25 9.72627 20.1534 9.89818 19.9815C10.0701 19.8096 10.1667 19.5764 10.1667 19.3333V14.75C10.1667 14.5069 10.0701 14.2737 9.89818 14.1018C9.72627 13.9299 9.49312 13.8333 9.25 13.8333ZM17.0417 10.1667C17.463 10.1667 17.8802 10.0837 18.2694 9.92245C18.6587 9.76121 19.0124 9.52489 19.3103 9.22697C19.6082 8.92905 19.8445 8.57536 20.0058 8.18611C20.167 7.79686 20.25 7.37966 20.25 6.95833C20.25 6.53701 20.167 6.11981 20.0058 5.73056C19.8445 5.3413 19.6082 4.98762 19.3103 4.6897C19.0124 4.39178 18.6587 4.15545 18.2694 3.99422C17.8802 3.83299 17.463 3.75 17.0417 3.75C16.1908 3.75 15.3747 4.08802 14.773 4.6897C14.1714 5.29138 13.8333 6.10743 13.8333 6.95833C13.8333 7.80924 14.1714 8.62529 14.773 9.22697C15.3747 9.82865 16.1908 10.1667 17.0417 10.1667ZM19.3333 13.8333H14.75C14.5069 13.8333 14.2737 13.9299 14.1018 14.1018C13.9299 14.2737 13.8333 14.5069 13.8333 14.75V19.3333C13.8333 19.5764 13.9299 19.8096 14.1018 19.9815C14.2737 20.1534 14.5069 20.25 14.75 20.25H19.3333C19.5764 20.25 19.8096 20.1534 19.9815 19.9815C20.1534 19.8096 20.25 19.5764 20.25 19.3333V14.75C20.25 14.5069 20.1534 14.2737 19.9815 14.1018C19.8096 13.9299 19.5764 13.8333 19.3333 13.8333Z" stroke="white" stroke-linejoin="round"/>
</svg>
