<svg width="16" height="16" viewBox="0 0 16 16" fill="none" xmlns="http://www.w3.org/2000/svg">
<path d="M6.00002 3.33338C5.82321 3.33338 5.65364 3.40362 5.52862 3.52864C5.40359 3.65367 5.33335 3.82324 5.33335 4.00005C5.33335 4.17686 5.40359 4.34643 5.52862 4.47145C5.65364 4.59648 5.82321 4.66671 6.00002 4.66671C6.17683 4.66671 6.3464 4.59648 6.47142 4.47145C6.59645 4.34643 6.66669 4.17686 6.66669 4.00005C6.66669 3.82324 6.59645 3.65367 6.47142 3.52864C6.3464 3.40362 6.17683 3.33338 6.00002 3.33338ZM4.11335 3.33338C4.25109 2.94302 4.50651 2.605 4.84442 2.36591C5.18233 2.12681 5.58608 1.99841 6.00002 1.99841C6.41396 1.99841 6.81771 2.12681 7.15562 2.36591C7.49353 2.605 7.74895 2.94302 7.88669 3.33338H12.6667C12.8435 3.33338 13.0131 3.40362 13.1381 3.52864C13.2631 3.65367 13.3334 3.82324 13.3334 4.00005C13.3334 4.17686 13.2631 4.34643 13.1381 4.47145C13.0131 4.59648 12.8435 4.66671 12.6667 4.66671H7.88669C7.74895 5.05707 7.49353 5.39509 7.15562 5.63419C6.81771 5.87328 6.41396 6.00168 6.00002 6.00168C5.58608 6.00168 5.18233 5.87328 4.84442 5.63419C4.50651 5.39509 4.25109 5.05707 4.11335 4.66671H3.33335C3.15654 4.66671 2.98697 4.59648 2.86195 4.47145C2.73693 4.34643 2.66669 4.17686 2.66669 4.00005C2.66669 3.82324 2.73693 3.65367 2.86195 3.52864C2.98697 3.40362 3.15654 3.33338 3.33335 3.33338H4.11335ZM10 7.33338C9.82321 7.33338 9.65364 7.40362 9.52861 7.52864C9.40359 7.65367 9.33335 7.82324 9.33335 8.00005C9.33335 8.17686 9.40359 8.34643 9.52861 8.47145C9.65364 8.59648 9.82321 8.66671 10 8.66671C10.1768 8.66671 10.3464 8.59648 10.4714 8.47145C10.5964 8.34643 10.6667 8.17686 10.6667 8.00005C10.6667 7.82324 10.5964 7.65367 10.4714 7.52864C10.3464 7.40362 10.1768 7.33338 10 7.33338ZM8.11335 7.33338C8.25109 6.94303 8.50651 6.605 8.84442 6.36591C9.18233 6.12681 9.58608 5.99841 10 5.99841C10.414 5.99841 10.8177 6.12681 11.1556 6.36591C11.4935 6.605 11.749 6.94303 11.8867 7.33338H12.6667C12.8435 7.33338 13.0131 7.40362 13.1381 7.52864C13.2631 7.65367 13.3334 7.82324 13.3334 8.00005C13.3334 8.17686 13.2631 8.34643 13.1381 8.47145C13.0131 8.59648 12.8435 8.66671 12.6667 8.66671H11.8867C11.749 9.05707 11.4935 9.39509 11.1556 9.63419C10.8177 9.87328 10.414 10.0017 10 10.0017C9.58608 10.0017 9.18233 9.87328 8.84442 9.63419C8.50651 9.39509 8.25109 9.05707 8.11335 8.66671H3.33335C3.15654 8.66671 2.98697 8.59648 2.86195 8.47145C2.73693 8.34643 2.66669 8.17686 2.66669 8.00005C2.66669 7.82324 2.73693 7.65367 2.86195 7.52864C2.98697 7.40362 3.15654 7.33338 3.33335 7.33338H8.11335ZM6.00002 11.3334C5.82321 11.3334 5.65364 11.4036 5.52862 11.5286C5.40359 11.6537 5.33335 11.8232 5.33335 12C5.33335 12.1769 5.40359 12.3464 5.52862 12.4715C5.65364 12.5965 5.82321 12.6667 6.00002 12.6667C6.17683 12.6667 6.3464 12.5965 6.47142 12.4715C6.59645 12.3464 6.66669 12.1769 6.66669 12C6.66669 11.8232 6.59645 11.6537 6.47142 11.5286C6.3464 11.4036 6.17683 11.3334 6.00002 11.3334ZM4.11335 11.3334C4.25109 10.943 4.50651 10.605 4.84442 10.3659C5.18233 10.1268 5.58608 9.99841 6.00002 9.99841C6.41396 9.99841 6.81771 10.1268 7.15562 10.3659C7.49353 10.605 7.74895 10.943 7.88669 11.3334H12.6667C12.8435 11.3334 13.0131 11.4036 13.1381 11.5286C13.2631 11.6537 13.3334 11.8232 13.3334 12C13.3334 12.1769 13.2631 12.3464 13.1381 12.4715C13.0131 12.5965 12.8435 12.6667 12.6667 12.6667H7.88669C7.74895 13.0571 7.49353 13.3951 7.15562 13.6342C6.81771 13.8733 6.41396 14.0017 6.00002 14.0017C5.58608 14.0017 5.18233 13.8733 4.84442 13.6342C4.50651 13.3951 4.25109 13.0571 4.11335 12.6667H3.33335C3.15654 12.6667 2.98697 12.5965 2.86195 12.4715C2.73693 12.3464 2.66669 12.1769 2.66669 12C2.66669 11.8232 2.73693 11.6537 2.86195 11.5286C2.98697 11.4036 3.15654 11.3334 3.33335 11.3334H4.11335Z" fill="#01337C"/>
</svg>
