<svg width="24" height="24" viewBox="0 0 24 24" fill="none" xmlns="http://www.w3.org/2000/svg">
<path d="M16.25 2.25C16.25 2.05109 16.171 1.86032 16.0303 1.71967C15.8897 1.57902 15.6989 1.5 15.5 1.5C15.3011 1.5 15.1103 1.57902 14.9697 1.71967C14.829 1.86032 14.75 2.05109 14.75 2.25V4.074C13.8672 4.23668 13.0548 4.66431 12.421 5.3L11.641 6.08L10.281 4.72C10.2118 4.64834 10.1291 4.59116 10.0376 4.55181C9.94615 4.51246 9.84774 4.49173 9.74816 4.49081C9.64858 4.4899 9.54981 4.50883 9.45762 4.5465C9.36543 4.58417 9.28166 4.63982 9.21121 4.7102C9.14076 4.78059 9.08503 4.8643 9.04728 4.95646C9.00952 5.04861 8.9905 5.14736 8.99132 5.24694C8.99213 5.34653 9.01278 5.44495 9.05204 5.53647C9.0913 5.628 9.1484 5.71078 9.22 5.78L10.58 7.141L7.141 10.581L5.781 9.22C5.63961 9.08331 5.4502 9.00763 5.25355 9.00924C5.0569 9.01086 4.86875 9.08965 4.72963 9.22864C4.59051 9.36763 4.51154 9.5557 4.50974 9.75235C4.50794 9.949 4.58345 10.1385 4.72 10.28L6.08 11.641L5.303 12.419C4.66659 13.0532 4.23858 13.8663 4.076 14.75H2.25C2.05109 14.75 1.86032 14.829 1.71967 14.9697C1.57902 15.1103 1.5 15.3011 1.5 15.5C1.5 15.6989 1.57902 15.8897 1.71967 16.0303C1.86032 16.171 2.05109 16.25 2.25 16.25H4.055C4.159 16.912 4.412 17.555 4.815 18.124L3.22 19.72C3.14631 19.7887 3.08721 19.8715 3.04622 19.9635C3.00523 20.0555 2.98319 20.1548 2.98141 20.2555C2.97963 20.3562 2.99816 20.4562 3.03588 20.5496C3.0736 20.643 3.12974 20.7278 3.20096 20.799C3.27218 20.8703 3.35701 20.9264 3.4504 20.9641C3.54379 21.0018 3.64382 21.0204 3.74452 21.0186C3.84523 21.0168 3.94454 20.9948 4.03654 20.9538C4.12854 20.9128 4.21134 20.8537 4.28 20.78L5.876 19.185C6.43332 19.5805 7.07481 19.8414 7.75 19.947V21.75C7.75 21.9489 7.82902 22.1397 7.96967 22.2803C8.11032 22.421 8.30109 22.5 8.5 22.5C8.69891 22.5 8.88968 22.421 9.03033 22.2803C9.17098 22.1397 9.25 21.9489 9.25 21.75V19.927C10.1347 19.765 10.949 19.3369 11.584 18.7L12.361 17.922L13.72 19.28C13.7887 19.3537 13.8715 19.4128 13.9635 19.4538C14.0555 19.4948 14.1548 19.5168 14.2555 19.5186C14.3562 19.5204 14.4562 19.5018 14.5496 19.4641C14.643 19.4264 14.7278 19.3703 14.799 19.299C14.8703 19.2278 14.9264 19.143 14.9641 19.0496C15.0018 18.9562 15.0204 18.8562 15.0186 18.7555C15.0168 18.6548 14.9948 18.5555 14.9538 18.4635C14.9128 18.3715 14.8537 18.2887 14.78 18.22L13.422 16.862L16.862 13.422L18.22 14.78C18.2887 14.8537 18.3715 14.9128 18.4635 14.9538C18.5555 14.9948 18.6548 15.0168 18.7555 15.0186C18.8562 15.0204 18.9562 15.0018 19.0496 14.9641C19.143 14.9264 19.2278 14.8703 19.299 14.799C19.3703 14.7278 19.4264 14.643 19.4641 14.5496C19.5018 14.4562 19.5204 14.3562 19.5186 14.2555C19.5168 14.1548 19.4948 14.0555 19.4538 13.9635C19.4128 13.8715 19.3537 13.7887 19.28 13.72L17.922 12.361L18.702 11.581C19.3388 10.9469 19.7671 10.1338 19.93 9.25H21.751C21.9499 9.25 22.1407 9.17098 22.2813 9.03033C22.422 8.88968 22.501 8.69891 22.501 8.5C22.501 8.30109 22.422 8.11032 22.2813 7.96967C22.1407 7.82902 21.9499 7.75 21.751 7.75H19.951C19.8454 7.07402 19.5842 6.43182 19.188 5.874L20.78 4.28C20.9125 4.13783 20.9846 3.94978 20.9812 3.75548C20.9777 3.56118 20.899 3.37579 20.7616 3.23838C20.6242 3.10097 20.4388 3.02225 20.2445 3.01883C20.0502 3.0154 19.8622 3.08752 19.72 3.22L18.126 4.814C17.568 4.41858 16.9258 4.15808 16.25 4.053V2.25ZM6.363 13.48L13.482 6.361C14.0337 5.80935 14.7818 5.49944 15.562 5.49944C16.3422 5.49944 17.0903 5.80935 17.642 6.361C18.1937 6.91265 18.5036 7.66085 18.5036 8.441C18.5036 9.22115 18.1937 9.96935 17.642 10.521L10.522 17.639C10.2489 17.9121 9.92459 18.1287 9.56773 18.2765C9.21086 18.4242 8.82839 18.5003 8.44215 18.5002C8.0559 18.5002 7.67345 18.424 7.31662 18.2762C6.95979 18.1283 6.63558 17.9116 6.3625 17.6385C6.08942 17.3654 5.87281 17.0411 5.72504 16.6842C5.57727 16.3274 5.50124 15.9449 5.50129 15.5586C5.50134 15.1724 5.57746 14.7899 5.72531 14.4331C5.87316 14.0763 6.08985 13.7531 6.363 13.48ZM9.5 15.5C9.5 15.7652 9.39464 16.0196 9.20711 16.2071C9.01957 16.3946 8.76522 16.5 8.5 16.5C8.23478 16.5 7.98043 16.3946 7.79289 16.2071C7.60536 16.0196 7.5 15.7652 7.5 15.5C7.5 15.2348 7.60536 14.9804 7.79289 14.7929C7.98043 14.6054 8.23478 14.5 8.5 14.5C8.76522 14.5 9.01957 14.6054 9.20711 14.7929C9.39464 14.9804 9.5 15.2348 9.5 15.5ZM15.5 9.5C15.7652 9.5 16.0196 9.39464 16.2071 9.20711C16.3946 9.01957 16.5 8.76522 16.5 8.5C16.5 8.23478 16.3946 7.98043 16.2071 7.79289C16.0196 7.60536 15.7652 7.5 15.5 7.5C15.2348 7.5 14.9804 7.60536 14.7929 7.79289C14.6054 7.98043 14.5 8.23478 14.5 8.5C14.5 8.76522 14.6054 9.01957 14.7929 9.20711C14.9804 9.39464 15.2348 9.5 15.5 9.5Z" fill="white"/>
</svg>
