<svg width="24" height="24" viewBox="0 0 24 24" fill="none" xmlns="http://www.w3.org/2000/svg">
<rect width="24" height="24" rx="12" fill="white"/>
<path d="M5.70825 4.28071C5.51965 4.09855 5.26705 3.99776 5.00485 4.00004C4.74266 4.00232 4.49184 4.10749 4.30643 4.29289C4.12103 4.4783 4.01586 4.72911 4.01358 4.99131C4.0113 5.25351 4.1121 5.50611 4.29425 5.69471L11.2153 12.6167C11.2653 12.6787 11.3203 12.7347 11.3833 12.7837L18.2933 19.6947C18.3861 19.7876 18.4963 19.8613 18.6177 19.9116C18.739 19.962 18.8691 19.9879 19.0004 19.9879C19.1317 19.988 19.2618 19.9621 19.3832 19.9119C19.5046 19.8617 19.6148 19.7881 19.7078 19.6952C19.8007 19.6024 19.8744 19.4921 19.9247 19.3708C19.975 19.2495 20.0009 19.1194 20.001 18.9881C20.001 18.8567 19.9752 18.7266 19.925 18.6053C19.8747 18.4839 19.8011 18.3736 19.7083 18.2807L19.0333 17.6057C20.4149 15.8759 21.1107 13.6976 20.9874 11.4871C20.8642 9.2767 19.9306 7.18921 18.3653 5.62371C18.273 5.5282 18.1627 5.45202 18.0407 5.39961C17.9187 5.3472 17.7874 5.31962 17.6547 5.31846C17.5219 5.31731 17.3902 5.34261 17.2673 5.39289C17.1444 5.44317 17.0328 5.51742 16.9389 5.61132C16.845 5.70521 16.7707 5.81686 16.7204 5.93976C16.6702 6.06265 16.6448 6.19433 16.646 6.32711C16.6472 6.45989 16.6747 6.59111 16.7272 6.71312C16.7796 6.83512 16.8557 6.94547 16.9513 7.03771C18.1416 8.22816 18.8632 9.80762 18.9838 11.4868C19.1045 13.1659 18.6161 14.8323 17.6083 16.1807L16.1733 14.7457C16.8087 13.784 17.0925 12.6323 16.9766 11.4854C16.8607 10.3385 16.3523 9.26689 15.5373 8.45171C15.3495 8.26394 15.0948 8.15845 14.8293 8.15845C14.5637 8.15845 14.309 8.26394 14.1213 8.45171C13.9335 8.63949 13.828 8.89416 13.828 9.15971C13.828 9.42526 13.9335 9.67994 14.1213 9.86771C14.5603 10.3063 14.8525 10.8703 14.9576 11.4819C15.0628 12.0935 14.9756 12.7227 14.7083 13.2827L12.7163 11.2907C12.7103 11.2846 12.7043 11.2786 12.6983 11.2727L5.70825 4.28071ZM5.23925 10.1747C5.30768 9.91838 5.27148 9.64536 5.13861 9.41573C5.00574 9.18609 4.78709 9.01864 4.53075 8.95021C4.27442 8.88179 4.00141 8.91799 3.77177 9.05086C3.54213 9.18373 3.37468 9.40238 3.30625 9.65871C2.89763 11.1848 2.89792 12.7916 3.3071 14.3175C3.71627 15.8435 4.51992 17.2348 5.63725 18.3517C5.73016 18.4446 5.84045 18.5182 5.96182 18.5684C6.08319 18.6186 6.21326 18.6445 6.34461 18.6444C6.47596 18.6444 6.60601 18.6185 6.72734 18.5681C6.84867 18.5178 6.95891 18.4441 7.05175 18.3512C7.1446 18.2583 7.21823 18.148 7.26846 18.0266C7.31868 17.9053 7.3445 17.7752 7.34446 17.6439C7.34441 17.5125 7.31849 17.3825 7.26818 17.2611C7.21788 17.1398 7.14416 17.0296 7.05125 16.9367C6.182 16.068 5.55687 14.9857 5.23878 13.7986C4.92069 12.6116 4.92085 11.3617 5.23925 10.1747ZM9.40125 13.4877C9.33874 13.3682 9.2527 13.2626 9.1483 13.1772C9.04391 13.0918 8.92332 13.0284 8.79379 12.9908C8.66426 12.9533 8.52847 12.9423 8.39459 12.9585C8.2607 12.9748 8.13149 13.018 8.01472 13.0855C7.89796 13.153 7.79605 13.2434 7.71514 13.3513C7.63422 13.4592 7.57597 13.5823 7.54388 13.7133C7.5118 13.8443 7.50654 13.9805 7.52843 14.1135C7.55032 14.2466 7.5989 14.3739 7.67125 14.4877C7.88525 14.8587 8.15125 15.2077 8.46625 15.5227C8.65486 15.7049 8.90746 15.8057 9.16965 15.8034C9.43185 15.8011 9.68266 15.6959 9.86807 15.5105C10.0535 15.3251 10.1586 15.0743 10.1609 14.8121C10.1632 14.5499 10.0624 14.2973 9.88025 14.1087C9.68925 13.9177 9.53025 13.7087 9.40225 13.4867" fill="#F9A034"/>
</svg>
