<svg width="24" height="24" viewBox="0 0 24 24" fill="none" xmlns="http://www.w3.org/2000/svg">
<rect width="24" height="24" rx="12" fill="white"/>
<path d="M6.34316 18C5.60029 17.2121 5.01101 16.2767 4.60897 15.2472C4.20693 14.2177 4 13.1143 4 12C4 10.8857 4.20693 9.7823 4.60897 8.75282C5.01101 7.72334 5.60029 6.78793 6.34316 6M17.6568 6C18.3997 6.78793 18.989 7.72334 19.391 8.75282C19.7931 9.7823 20 10.8857 20 12C20 13.1143 19.7931 14.2177 19.391 15.2472C18.989 16.2767 18.3997 17.2121 17.6568 18M8.85692 15.3338C8.44409 14.896 8.11661 14.3763 7.89319 13.8043C7.66976 13.2323 7.55477 12.6192 7.55477 12C7.55477 11.3808 7.66976 10.7677 7.89319 10.1957C8.11661 9.62372 8.44409 9.104 8.85692 8.66625M15.1431 8.66625C15.5559 9.104 15.8834 9.62372 16.1068 10.1957C16.3302 10.7677 16.4452 11.3808 16.4452 12C16.4452 12.6192 16.3302 13.2323 16.1068 13.8043C15.8834 14.3763 15.5559 14.896 15.1431 15.3338M12.8889 12C12.8889 12.25 12.7952 12.4899 12.6285 12.6667C12.4618 12.8435 12.2357 12.9428 12 12.9428C11.7643 12.9428 11.5382 12.8435 11.3715 12.6667C11.2048 12.4899 11.1111 12.25 11.1111 12C11.1111 11.75 11.2048 11.5101 11.3715 11.3333C11.5382 11.1565 11.7643 11.0572 12 11.0572C12.2357 11.0572 12.4618 11.1565 12.6285 11.3333C12.7952 11.5101 12.8889 11.75 12.8889 12Z" stroke="#00C17B" stroke-width="2" stroke-linecap="round" stroke-linejoin="round"/>
</svg>
