<svg width="24" height="24" viewBox="0 0 24 24" fill="none" xmlns="http://www.w3.org/2000/svg">
<path d="M3 20H4.8M4.8 20H13.8M4.8 20V7.01176C4.8 5.95765 4.8 5.43059 4.9962 5.02776C5.169 4.67294 5.4435 4.38588 5.7828 4.20518C6.168 4 6.672 4 7.68 4H10.92C11.928 4 12.432 4 12.8163 4.20518C13.1556 4.38588 13.4319 4.67294 13.6038 5.02776C13.8 5.42965 13.8 5.95671 13.8 7.00894V12.4706M13.8 20H19.2M13.8 20V12.4706M13.8 12.4706C13.8 11.5934 13.8 11.1548 13.9368 10.8094C14.0272 10.581 14.1597 10.3734 14.3267 10.1985C14.4938 10.0236 14.6922 9.88482 14.9106 9.79012C15.2418 9.64706 15.6612 9.64706 16.5 9.64706C17.3388 9.64706 17.7582 9.64706 18.0894 9.79012C18.3078 9.88482 18.5062 10.0236 18.6732 10.1985C18.8403 10.3734 18.9728 10.581 19.0632 10.8094C19.2 11.1548 19.2 11.5934 19.2 12.4706V20M19.2 20H21M7.5 10.5882H11.1M7.5 7.76471H11.1" stroke="#01337C" stroke-width="1.5" stroke-linecap="round" stroke-linejoin="round"/>
</svg>
