<svg width="24" height="24" viewBox="0 0 24 24" fill="none" xmlns="http://www.w3.org/2000/svg">
<rect width="24" height="24" rx="12" fill="#FF574C" fill-opacity="0.2"/>
<path fill-rule="evenodd" clip-rule="evenodd" d="M9 6C9 5.20435 9.31607 4.44129 9.87868 3.87868C10.4413 3.31607 11.2044 3 12 3C12.7956 3 13.5587 3.31607 14.1213 3.87868C14.6839 4.44129 15 5.20435 15 6V11.5C15 11.815 15.152 12.106 15.384 12.319C16.1252 13.0004 16.6434 13.8897 16.8708 14.8705C17.0982 15.8512 17.0242 16.8778 16.6585 17.8159C16.2929 18.7539 15.6525 19.5597 14.8213 20.1278C13.9901 20.6959 13.0068 20.9998 12 20.9998C10.9932 20.9998 10.0099 20.6959 9.17866 20.1278C8.34746 19.5597 7.70712 18.7539 7.34145 17.8159C6.97578 16.8778 6.90181 15.8512 7.12922 14.8705C7.35663 13.8897 7.87483 13.0004 8.616 12.319C8.848 12.106 9 11.815 9 11.5V6ZM11 6V13H13V6C13 5.73478 12.8946 5.48043 12.7071 5.29289C12.5196 5.10536 12.2652 5 12 5C11.7348 5 11.4804 5.10536 11.2929 5.29289C11.1054 5.48043 11 5.73478 11 6Z" fill="#F05348"/>
</svg>
