<svg width="24" height="24" viewBox="0 0 24 24" fill="none" xmlns="http://www.w3.org/2000/svg">
<path fill-rule="evenodd" clip-rule="evenodd" d="M10.854 14.51C10.9183 14.5846 10.9673 14.6712 10.9981 14.7648C11.0289 14.8584 11.041 14.9571 11.0337 15.0554C11.0264 15.1536 10.9997 15.2495 10.9554 15.3374C10.911 15.4254 10.8497 15.5037 10.775 15.568L8.02 17.943H10.286C10.4391 17.943 10.5885 17.9897 10.7142 18.0771C10.8399 18.1644 10.9359 18.2882 10.9892 18.4316C11.0426 18.5751 11.0507 18.7315 11.0126 18.8797C10.9745 19.028 10.8919 19.161 10.776 19.261L6.49 22.953C6.41541 23.0173 6.32888 23.0664 6.23534 23.0973C6.1418 23.1282 6.04309 23.1404 5.94485 23.1331C5.84661 23.1259 5.75075 23.0994 5.66276 23.0551C5.57476 23.0108 5.49635 22.9496 5.432 22.875C5.36766 22.8004 5.31863 22.7139 5.28773 22.6203C5.25682 22.5268 5.24464 22.4281 5.25189 22.3298C5.25913 22.2316 5.28565 22.1357 5.32994 22.0477C5.37423 21.9598 5.43541 21.8813 5.51 21.817L8.266 19.443H6C5.8467 19.4433 5.69699 19.3966 5.57104 19.3092C5.44509 19.2218 5.34894 19.0979 5.29556 18.9542C5.24217 18.8105 5.23411 18.6539 5.27245 18.5054C5.31079 18.357 5.3937 18.2239 5.51 18.124L9.796 14.432C9.87065 14.3677 9.95723 14.3187 10.0508 14.2879C10.1444 14.2571 10.2431 14.245 10.3414 14.2523C10.4396 14.2596 10.5355 14.2863 10.6234 14.3306C10.7114 14.375 10.7897 14.4353 10.854 14.51ZM15.53 14.971C15.6705 15.1116 15.7493 15.3022 15.7493 15.501C15.7493 15.6997 15.6705 15.8904 15.53 16.031L13.53 18.031C13.3878 18.1635 13.1998 18.2356 13.0055 18.2322C12.8112 18.2287 12.6258 18.15 12.4884 18.0126C12.351 17.8752 12.2723 17.6898 12.2688 17.4955C12.2654 17.3012 12.3375 17.1132 12.47 16.971L14.47 14.971C14.6106 14.8305 14.8013 14.7517 15 14.7517C15.1988 14.7517 15.3894 14.8305 15.53 14.971ZM17.53 18.471C17.6705 18.6116 17.7493 18.8022 17.7493 19.001C17.7493 19.1997 17.6705 19.3904 17.53 19.531L15.53 21.531C15.3878 21.6635 15.1998 21.7356 15.0055 21.7322C14.8112 21.7287 14.6258 21.65 14.4884 21.5126C14.351 21.3752 14.2723 21.1898 14.2688 20.9955C14.2654 20.8012 14.3375 20.6132 14.47 20.471L16.47 18.471C16.6106 18.3305 16.8013 18.2517 17 18.2517C17.1988 18.2517 17.3894 18.3305 17.53 18.471ZM13.53 19.471C13.6705 19.6116 13.7493 19.8022 13.7493 20.001C13.7493 20.1997 13.6705 20.3904 13.53 20.531L11.53 22.531C11.3878 22.6635 11.1998 22.7356 11.0055 22.7322C10.8112 22.7287 10.6258 22.65 10.4884 22.5126C10.351 22.3752 10.2723 22.1898 10.2688 21.9955C10.2654 21.8012 10.3375 21.6132 10.47 21.471L12.47 19.471C12.6106 19.3305 12.8013 19.2517 13 19.2517C13.1988 19.2517 13.3894 19.3305 13.53 19.471Z" fill="#F05348"/>
<path opacity="0.5" d="M16.286 19C19.442 19 22 16.472 22 13.353C22 10.881 20.393 8.78 18.155 8.015C17.837 5.194 15.415 3 12.476 3C9.32 3 6.762 5.528 6.762 8.647C6.762 9.337 6.887 9.997 7.116 10.609C6.84253 10.5558 6.56459 10.529 6.286 10.529C3.919 10.53 2 12.426 2 14.765C2 17.104 3.919 19 6.286 19H16.286Z" fill="#F05348"/>
</svg>
