<svg width="32" height="32" viewBox="0 0 32 32" fill="none" xmlns="http://www.w3.org/2000/svg">
<g clip-path="url(#clip0_1_95)">
<path fill-rule="evenodd" clip-rule="evenodd" d="M19.9999 2.66675C20.468 2.66676 20.9278 2.78998 21.3332 3.02403C21.7386 3.25808 22.0752 3.59471 22.3093 4.00008H23.9999C24.7072 4.00008 25.3854 4.28103 25.8855 4.78113C26.3856 5.28123 26.6666 5.9595 26.6666 6.66675V22.6667C26.6666 24.4349 25.9642 26.1305 24.714 27.3808C23.4637 28.631 21.768 29.3334 19.9999 29.3334H7.99992C7.29267 29.3334 6.6144 29.0525 6.1143 28.5524C5.6142 28.0523 5.33325 27.374 5.33325 26.6667V6.66675C5.33325 5.9595 5.6142 5.28123 6.1143 4.78113C6.6144 4.28103 7.29267 4.00008 7.99992 4.00008H9.69059C9.92463 3.59471 10.2613 3.25808 10.6666 3.02403C11.072 2.78998 11.5318 2.66676 11.9999 2.66675H19.9999ZM9.33325 6.66675H7.99992V26.6667H19.9999C21.0608 26.6667 22.0782 26.2453 22.8283 25.4952C23.5785 24.745 23.9999 23.7276 23.9999 22.6667V6.66675H22.6666C22.6666 7.37399 22.3856 8.05227 21.8855 8.55237C21.3854 9.05246 20.7072 9.33341 19.9999 9.33341H11.9999C11.2927 9.33341 10.6144 9.05246 10.1143 8.55237C9.6142 8.05227 9.33325 7.37399 9.33325 6.66675ZM21.6506 12.5054C21.9005 12.7555 22.041 13.0945 22.041 13.4481C22.041 13.8016 21.9005 14.1407 21.6506 14.3907L15.0506 20.9907C14.8005 21.2407 14.4615 21.3811 14.1079 21.3811C13.7544 21.3811 13.4153 21.2407 13.1653 20.9907L10.3386 18.1614C10.1015 17.909 9.97199 17.5742 9.97737 17.228C9.98274 16.8817 10.1226 16.5512 10.3674 16.3062C10.6122 16.0613 10.9426 15.9211 11.2889 15.9155C11.6351 15.9099 11.97 16.0392 12.2226 16.2761L14.1093 18.1614L19.7653 12.5054C20.0153 12.2555 20.3544 12.115 20.7079 12.115C21.0615 12.115 21.4006 12.2555 21.6506 12.5054ZM19.9999 5.33341H11.9999V6.66675H19.9999V5.33341Z" fill="#00C17B"/>
</g>
<defs>
<clipPath id="clip0_1_95">
<rect width="32" height="32" fill="white"/>
</clipPath>
</defs>
</svg>
