<svg width="32" height="32" viewBox="0 0 32 32" fill="none" xmlns="http://www.w3.org/2000/svg">
<path d="M6.03122 24.875C6.03122 25.4281 6.47809 25.875 7.03122 25.875H24.9687C25.5218 25.875 25.9687 25.4281 25.9687 24.875V17.5938C25.9687 12.0875 21.5062 7.625 16 7.625C10.4937 7.625 6.03122 12.0875 6.03122 17.5938V24.875ZM8.28122 17.5938C8.28122 13.3313 11.7375 9.875 16 9.875C20.2625 9.875 23.7187 13.3313 23.7187 17.5938V23.625H12.625V18.2812C12.625 18.1094 12.4843 17.9688 12.3125 17.9688H10.9375C10.7656 17.9688 10.625 18.1094 10.625 18.2812V23.625H8.28122V17.5938ZM6.77809 9.70312L8.01559 8.46562C8.11247 8.36875 8.11247 8.20938 8.01559 8.1125L5.89372 5.99062C5.84673 5.9441 5.78328 5.918 5.71716 5.918C5.65103 5.918 5.58758 5.9441 5.54059 5.99062L4.30309 7.22813C4.25657 7.27511 4.23047 7.33856 4.23047 7.40469C4.23047 7.47081 4.25657 7.53426 4.30309 7.58125L6.42497 9.70312C6.52184 9.8 6.67809 9.8 6.77809 9.70312ZM27.7031 7.22813L26.4656 5.99062C26.4186 5.9441 26.3552 5.918 26.289 5.918C26.2229 5.918 26.1595 5.9441 26.1125 5.99062L23.9906 8.1125C23.9441 8.15949 23.918 8.22294 23.918 8.28906C23.918 8.35519 23.9441 8.41864 23.9906 8.46562L25.2281 9.70312C25.325 9.8 25.4843 9.8 25.5812 9.70312L27.7031 7.58125C27.8 7.48125 27.8 7.325 27.7031 7.22813ZM26 27.875H5.99997C5.44684 27.875 4.99997 28.3219 4.99997 28.875V29.625C4.99997 29.7625 5.11247 29.875 5.24997 29.875H26.75C26.8875 29.875 27 29.7625 27 29.625V28.875C27 28.3219 26.5531 27.875 26 27.875ZM15.125 5.625H16.875C17.0125 5.625 17.125 5.5125 17.125 5.375V2.375C17.125 2.2375 17.0125 2.125 16.875 2.125H15.125C14.9875 2.125 14.875 2.2375 14.875 2.375V5.375C14.875 5.5125 14.9875 5.625 15.125 5.625Z" fill="#F9A034"/>
</svg>
