<svg width="32" height="33" viewBox="0 0 32 33" fill="none" xmlns="http://www.w3.org/2000/svg">
<g clip-path="url(#clip0_1_401)">
<path fill-rule="evenodd" clip-rule="evenodd" d="M20.9427 15.5573C21.1927 15.8073 21.3331 16.1464 21.3331 16.5C21.3331 16.8535 21.1927 17.1926 20.9427 17.4426L13.4001 24.9853C13.2771 25.1126 13.1299 25.2142 12.9673 25.2841C12.8046 25.354 12.6296 25.3907 12.4526 25.3923C12.2755 25.3938 12.1 25.3601 11.9361 25.293C11.7723 25.226 11.6234 25.127 11.4982 25.0018C11.373 24.8766 11.274 24.7278 11.207 24.5639C11.1399 24.4 11.1062 24.2245 11.1077 24.0474C11.1093 23.8704 11.146 23.6954 11.2159 23.5327C11.2858 23.3701 11.3874 23.2229 11.5147 23.0999L18.1147 16.5L11.5147 9.89995C11.2718 9.64848 11.1374 9.31168 11.1405 8.96208C11.1435 8.61249 11.2837 8.27807 11.531 8.03086C11.7782 7.78365 12.1126 7.64342 12.4622 7.64038C12.8118 7.63735 13.1486 7.77174 13.4001 8.01462L20.9427 15.5573Z" fill="#01337C"/>
</g>
<defs>
<clipPath id="clip0_1_401">
<rect width="32" height="32" fill="white" transform="matrix(0 -1 1 0 0 32.5)"/>
</clipPath>
</defs>
</svg>
