<svg width="24" height="24" viewBox="0 0 24 24" fill="none" xmlns="http://www.w3.org/2000/svg">
<path d="M16.0558 17.8115L15.92 17.8821L15.9526 18.0316L16.6096 21.0426L16.6439 21.2H16.805H18.8V22.8H5.2V21.2H7.195H7.35607L7.3904 21.0426L8.0474 18.0316L8.08004 17.8821L7.94417 17.8115C6.51384 17.0688 5.31497 15.9475 4.47837 14.57C3.64176 13.1925 3.19955 11.6117 3.2 10.0001C3.20033 8.43875 3.61602 6.90566 4.40444 5.55807C5.19285 4.21047 6.3256 3.09689 7.68645 2.33159C9.0473 1.56629 10.5873 1.17681 12.1483 1.20313C13.7094 1.22944 15.2353 1.6706 16.5696 2.48134C17.9039 3.29208 18.9985 4.44321 19.741 5.81661C20.4836 7.19002 20.8474 8.73625 20.7951 10.2967C20.7428 11.8571 20.2763 13.3755 19.4434 14.6961C18.6106 16.0167 17.4414 17.0919 16.0558 17.8115ZM9.78983 18.5203L9.58869 18.4686L9.54457 18.6715L9.04757 20.9575L8.99485 21.2H9.243H14.759H15.0074L14.9544 20.9573L14.4554 18.6713L14.4111 18.4684L14.21 18.5203C13.4882 18.7067 12.7456 18.8006 12.0002 18.8H12C11.2372 18.8 10.4969 18.7022 9.78983 18.5203ZM12 2.8C11.0545 2.8 10.1182 2.98623 9.24468 3.34807C8.37114 3.7099 7.57741 4.24025 6.90883 4.90883C6.24025 5.57741 5.7099 6.37113 5.34807 7.24468C4.98623 8.11822 4.8 9.05448 4.8 10C4.8 10.9455 4.98623 11.8818 5.34807 12.7553C5.7099 13.6289 6.24025 14.4226 6.90883 15.0912C7.57741 15.7597 8.37114 16.2901 9.24468 16.6519C10.1182 17.0138 11.0545 17.2 12 17.2C13.9096 17.2 15.7409 16.4414 17.0912 15.0912C18.4414 13.7409 19.2 11.9096 19.2 10C19.2 8.09044 18.4414 6.25909 17.0912 4.90883C15.7409 3.55857 13.9096 2.8 12 2.8ZM12 7.8C11.4165 7.8 10.8569 8.03178 10.4444 8.44436C10.0318 8.85694 9.8 9.41652 9.8 10C9.8 10.5835 10.0318 11.1431 10.4444 11.5556C10.8569 11.9682 11.4165 12.2 12 12.2C12.5835 12.2 13.1431 11.9682 13.5556 11.5556C13.9682 11.1431 14.2 10.5835 14.2 10C14.2 9.41652 13.9682 8.85694 13.5556 8.44436C13.1431 8.03178 12.5835 7.8 12 7.8ZM8.2 10C8.2 8.99218 8.60036 8.02563 9.31299 7.31299C10.0256 6.60035 10.9922 6.2 12 6.2C13.0078 6.2 13.9744 6.60035 14.687 7.31299C15.3996 8.02563 15.8 8.99218 15.8 10C15.8 11.0078 15.3996 11.9744 14.687 12.687C13.9744 13.3996 13.0078 13.8 12 13.8C10.9922 13.8 10.0256 13.3996 9.31299 12.687C8.60036 11.9744 8.2 11.0078 8.2 10Z" fill="white" stroke="#01337C" stroke-width="0.4"/>
</svg>
