<svg width="32" height="33" viewBox="0 0 32 33" fill="none" xmlns="http://www.w3.org/2000/svg">
<path opacity="0.5" d="M2.66675 16.5001C2.66675 10.2147 2.66675 7.07208 4.61875 5.11875C6.57341 3.16675 9.71475 3.16675 16.0001 3.16675C22.2854 3.16675 25.4281 3.16675 27.3801 5.11875C29.3334 7.07341 29.3334 10.2147 29.3334 16.5001C29.3334 22.7854 29.3334 25.9281 27.3801 27.8801C25.4294 29.8334 22.2854 29.8334 16.0001 29.8334C9.71475 29.8334 6.57208 29.8334 4.61875 27.8801C2.66675 25.9294 2.66675 22.7854 2.66675 16.5001Z" fill="#01337C"/>
<path fill-rule="evenodd" clip-rule="evenodd" d="M16.6667 9.83325C16.6667 9.56804 16.7721 9.31368 16.9596 9.12615C17.1471 8.93861 17.4015 8.83325 17.6667 8.83325H22.6667C22.9319 8.83325 23.1863 8.93861 23.3738 9.12615C23.5614 9.31368 23.6667 9.56804 23.6667 9.83325V14.8333C23.6667 15.0985 23.5614 15.3528 23.3738 15.5404C23.1863 15.7279 22.9319 15.8333 22.6667 15.8333C22.4015 15.8333 22.1471 15.7279 21.9596 15.5404C21.7721 15.3528 21.6667 15.0985 21.6667 14.8333V12.2466L16.7067 17.2066C16.6152 17.3048 16.5048 17.3836 16.3821 17.4383C16.2594 17.4929 16.127 17.5223 15.9927 17.5247C15.8585 17.5271 15.7251 17.5024 15.6006 17.4521C15.4761 17.4018 15.363 17.3269 15.268 17.232C15.173 17.137 15.0982 17.0239 15.0479 16.8994C14.9976 16.7749 14.9729 16.6415 14.9753 16.5072C14.9776 16.373 15.007 16.2405 15.0617 16.1179C15.1163 15.9952 15.1951 15.8848 15.2934 15.7933L20.2534 10.8333H17.6667C17.4015 10.8333 17.1471 10.7279 16.9596 10.5404C16.7721 10.3528 16.6667 10.0985 16.6667 9.83325Z" fill="#01337C"/>
<path d="M2.66675 23.8333C2.66675 21.0053 2.66675 19.5906 3.54541 18.7119C4.42408 17.8333 5.83875 17.8333 8.66675 17.8333C11.4947 17.8333 12.9094 17.8333 13.7881 18.7119C14.6667 19.5906 14.6667 21.0053 14.6667 23.8333C14.6667 26.6613 14.6667 28.0759 13.7881 28.9546C12.9094 29.8333 11.4947 29.8333 8.66675 29.8333C5.83875 29.8333 4.42408 29.8333 3.54541 28.9546C2.66675 28.0759 2.66675 26.6613 2.66675 23.8333Z" fill="#01337C"/>
</svg>
