<svg width="40" height="41" viewBox="0 0 40 41" fill="none" xmlns="http://www.w3.org/2000/svg">
<rect y="0.5" width="40" height="40" rx="4" fill="#C0D9FF"/>
<path d="M22 27.8C22 28.1183 21.842 28.4235 21.5607 28.6485C21.2794 28.8736 20.8978 29 20.5 29C20.1022 29 19.7206 28.8736 19.4393 28.6485C19.158 28.4235 19 28.1183 19 27.8C19 27.4817 19.158 27.1765 19.4393 26.9515C19.7206 26.7264 20.1022 26.6 20.5 26.6C20.8978 26.6 21.2794 26.7264 21.5607 26.9515C21.842 27.1765 22 27.4817 22 27.8ZM21.625 17.9C21.625 17.6613 21.5065 17.4324 21.2955 17.2636C21.0845 17.0948 20.7984 17 20.5 17C20.2016 17 19.9155 17.0948 19.7045 17.2636C19.4935 17.4324 19.375 17.6613 19.375 17.9V23.3C19.375 23.5387 19.4935 23.7676 19.7045 23.9364C19.9155 24.1052 20.2016 24.2 20.5 24.2C20.7984 24.2 21.0845 24.1052 21.2955 23.9364C21.5065 23.7676 21.625 23.5387 21.625 23.3V17.9Z" fill="#01337C"/>
<path d="M17.7645 9.58341C18.9818 7.4722 22.0183 7.4722 23.2357 9.58341L34.5714 29.2425C35.7888 31.3562 34.268 34 31.8345 34H9.16568C6.73092 34 5.2114 31.3562 6.42879 29.2425L17.7645 9.58341ZM21.5948 10.5357C21.4834 10.3436 21.3236 10.1842 21.1315 10.0734C20.9394 9.96257 20.7217 9.90426 20.5001 9.90426C20.2785 9.90426 20.0608 9.96257 19.8687 10.0734C19.6766 10.1842 19.5168 10.3436 19.4053 10.5357L8.07092 30.1947C7.96047 30.3877 7.90245 30.6063 7.90267 30.8287C7.90289 31.0512 7.96135 31.2697 8.07218 31.4624C8.18302 31.6551 8.34236 31.8152 8.53426 31.9268C8.72616 32.0383 8.94389 32.0974 9.16568 32.098H31.8345C32.0561 32.0972 32.2736 32.0382 32.4653 31.9267C32.6571 31.8152 32.8163 31.6552 32.9271 31.4627C33.0379 31.2702 33.0964 31.0519 33.0968 30.8297C33.0972 30.6074 33.0394 30.3889 32.9292 30.196L21.5948 10.5357Z" fill="#01337C"/>
</svg>
