<svg width="24" height="24" viewBox="0 0 24 24" fill="none" xmlns="http://www.w3.org/2000/svg">
<path fill-rule="evenodd" clip-rule="evenodd" d="M22.7143 4.28571C22.7143 5.42236 22.2628 6.51244 21.459 7.31617C20.6553 8.1199 19.5652 8.57143 18.4286 8.57143C17.2919 8.57143 16.2019 8.1199 15.3981 7.31617C14.5944 6.51244 14.1429 5.42236 14.1429 4.28571C14.1429 3.14907 14.5944 2.05898 15.3981 1.25526C16.2019 0.451529 17.2919 0 18.4286 0C19.5652 0 20.6553 0.451529 21.459 1.25526C22.2628 2.05898 22.7143 3.14907 22.7143 4.28571ZM12.7886 1.19486C11.6094 0.837792 10.363 0.761811 9.14915 0.972999C7.93533 1.18419 6.78782 1.67668 5.79852 2.41103C4.80922 3.14537 4.00563 4.10118 3.45209 5.20189C2.89856 6.30261 2.61046 7.51765 2.61087 8.74971V14.532C2.61087 14.6885 2.58005 14.8434 2.52018 14.9879C2.4603 15.1325 2.37254 15.2638 2.26191 15.3745C2.15128 15.4851 2.01993 15.5729 1.87538 15.6327C1.73083 15.6926 1.5759 15.7234 1.41944 15.7234C1.07845 15.7234 0.751423 15.8589 0.510305 16.1C0.269187 16.3411 0.133728 16.6681 0.133728 17.0091C0.133728 17.3501 0.269187 17.6772 0.510305 17.9183C0.751423 18.1594 1.07845 18.2949 1.41944 18.2949H19.5892C19.9301 18.2949 20.2572 18.1594 20.4983 17.9183C20.7394 17.6772 20.8749 17.3501 20.8749 17.0091C20.8749 16.6681 20.7394 16.3411 20.4983 16.1C20.2572 15.8589 19.9301 15.7234 19.5892 15.7234C19.2732 15.7234 18.9701 15.5979 18.7467 15.3745C18.5233 15.151 18.3977 14.848 18.3977 14.532V10.7143C17.2836 10.7095 16.1899 10.4153 15.2238 9.86041C14.2576 9.30557 13.4523 8.50916 12.8867 7.54928C12.3211 6.58941 12.0147 5.49903 11.9975 4.38505C11.9803 3.27107 12.2529 2.17174 12.7886 1.19486ZM7.50516 21.8571C7.50516 21.5161 7.64062 21.1891 7.88173 20.948C8.12285 20.7069 8.44988 20.5714 8.79087 20.5714H12.2194C12.5604 20.5714 12.8875 20.7069 13.1286 20.948C13.3697 21.1891 13.5052 21.5161 13.5052 21.8571C13.5052 22.1981 13.3697 22.5252 13.1286 22.7663C12.8875 23.0074 12.5604 23.1429 12.2194 23.1429H8.79087C8.44988 23.1429 8.12285 23.0074 7.88173 22.7663C7.64062 22.5252 7.50516 22.1981 7.50516 21.8571Z" fill="white"/>
</svg>
