<svg width="16" height="16" viewBox="0 0 16 16" fill="none" xmlns="http://www.w3.org/2000/svg">
<g clip-path="url(#clip0_1_247)">
<path fill-rule="evenodd" clip-rule="evenodd" d="M7.28571 0H3.98743C3.54103 0.015711 3.10697 0.150656 2.73035 0.390819C2.35372 0.630981 2.04827 0.967601 1.84571 1.36571L0 4.92343V4.94171H7.28571V0ZM0 14.7691V6.37029H16V14.7703C15.9997 15.0965 15.8699 15.4093 15.6391 15.6399C15.4083 15.8705 15.0954 16 14.7691 16H1.23086C0.904414 16 0.59134 15.8703 0.36051 15.6395C0.129679 15.4087 0 15.0956 0 14.7691ZM16 4.92343V4.94171H8.71429V0H12.0126C12.4695 0.00479477 12.9165 0.134606 13.3049 0.375356C13.6933 0.616107 14.0084 0.958607 14.216 1.36571L16 4.92343ZM7.28571 13.5383C7.28571 13.7277 7.36097 13.9094 7.49492 14.0434C7.62888 14.1773 7.81056 14.2526 8 14.2526C8.18944 14.2526 8.37112 14.1773 8.50508 14.0434C8.63903 13.9094 8.71429 13.7277 8.71429 13.5383V11.2491H9.68457C9.80349 11.2492 9.91974 11.2139 10.0186 11.1479C10.1175 11.0818 10.1946 10.9879 10.2401 10.8781C10.2856 10.7682 10.2975 10.6473 10.2743 10.5307C10.2511 10.4141 10.1938 10.3069 10.1097 10.2229L8.42514 8.53714C8.36932 8.4813 8.30304 8.437 8.23009 8.40678C8.15715 8.37656 8.07896 8.361 8 8.361C7.92104 8.361 7.84285 8.37656 7.76991 8.40678C7.69696 8.437 7.63068 8.4813 7.57486 8.53714L5.89029 10.2229C5.80619 10.3069 5.74891 10.4141 5.7257 10.5307C5.7025 10.6473 5.7144 10.7682 5.75991 10.8781C5.80542 10.9879 5.88249 11.0818 5.98138 11.1479C6.08026 11.2139 6.19651 11.2492 6.31543 11.2491H7.28571V13.5383Z" fill="#01337C"/>
</g>
<defs>
<clipPath id="clip0_1_247">
<rect width="16" height="16" fill="white"/>
</clipPath>
</defs>
</svg>
