<svg width="34" height="6" viewBox="0 0 34 6" fill="none" xmlns="http://www.w3.org/2000/svg">
<path d="M29.01 0.0100193C29.0756 0.00921988 29.1406 0.0221525 29.2009 0.047986C29.2612 0.0738195 29.3154 0.111982 29.36 0.160019L33.86 4.66002C34.06 4.86002 34.06 5.17002 33.86 5.37002C33.66 5.57002 33.35 5.57002 33.15 5.37002L29 1.22002L24.86 5.36002C24.66 5.56002 24.35 5.56002 24.15 5.36002C23.95 5.16002 23.95 4.85002 24.15 4.65002L28.65 0.150019C28.75 0.0500192 28.88 1.90735e-05 29 1.90735e-05L29.01 0.0100193Z" fill="#31353B"/>
<path d="M5.51001 0.0100193C5.57559 0.00921988 5.6406 0.0221525 5.70088 0.047986C5.76116 0.0738195 5.81536 0.111982 5.86001 0.160019L10.36 4.66002C10.56 4.86002 10.56 5.17002 10.36 5.37002C10.16 5.57002 9.85001 5.57002 9.65001 5.37002L5.50001 1.22002L1.36001 5.36002C1.16001 5.56002 0.85001 5.56002 0.65001 5.36002C0.45001 5.16002 0.45001 4.85002 0.65001 4.65002L5.15001 0.150019C5.25001 0.0500192 5.38001 1.90735e-05 5.50001 1.90735e-05L5.51001 0.0100193Z" fill="#31353B"/>
</svg>
