<svg width="24" height="24" viewBox="0 0 24 24" fill="none" xmlns="http://www.w3.org/2000/svg">
<path d="M4.78292 19.2251L4.70254 19.2692C4.55255 19.3525 4.37622 19.3717 4.21233 19.3226C4.04844 19.2735 3.91042 19.16 3.82862 19.0073C3.74683 18.8545 3.72797 18.6749 3.77619 18.5079C3.82441 18.341 3.93576 18.2004 4.08575 18.1171C5.62231 17.2631 7.00428 17.0642 8.37235 17.3214C9.70434 17.5723 10.9807 18.2499 12.3178 19.0445C14.7664 20.4989 17.6206 20.1105 19.22 18.9469C19.2887 18.8952 19.3669 18.8579 19.4499 18.8372C19.5329 18.8165 19.6191 18.8129 19.7035 18.8265C19.7879 18.8401 19.8688 18.8707 19.9415 18.9165C20.0142 18.9623 20.0772 19.0223 20.1269 19.0932C20.1766 19.164 20.2119 19.2442 20.2309 19.3291C20.2498 19.414 20.252 19.5018 20.2373 19.5876C20.2225 19.6733 20.1912 19.7552 20.1451 19.8285C20.099 19.9018 20.039 19.965 19.9687 20.0145C17.9617 21.4752 14.5603 21.8956 11.6691 20.1777C10.3361 19.3857 9.22977 18.8173 8.13841 18.612C7.10425 18.4178 6.04432 18.5433 4.78292 19.2251ZM18.1802 17.766C18.2827 17.7329 18.3832 17.6972 18.4826 17.6594C19.0106 17.4624 19.5107 17.1954 19.9702 16.8653C20.0406 16.8158 20.1005 16.7526 20.1466 16.6793C20.1928 16.606 20.2241 16.5241 20.2388 16.4384C20.2535 16.3526 20.2514 16.2648 20.2324 16.1799C20.2135 16.095 20.1781 16.0148 20.1285 15.944C20.0788 15.8731 20.0158 15.8131 19.9431 15.7673C19.8704 15.7215 19.7895 15.6909 19.7051 15.6773C19.6207 15.6637 19.5344 15.6673 19.4514 15.688C19.3684 15.7087 19.2903 15.746 19.2215 15.7977C17.6221 16.9613 14.768 17.3497 12.3194 15.8953C10.9822 15.1007 9.70589 14.4231 8.37338 14.1722C7.00531 13.915 5.62385 14.1145 4.08626 14.9679C3.93628 15.0513 3.82496 15.1919 3.77678 15.3589C3.75293 15.4416 3.7453 15.5283 3.75433 15.614C3.76336 15.6997 3.78886 15.7827 3.8294 15.8583C3.86993 15.934 3.92469 16.0008 3.99056 16.0548C4.05643 16.1089 4.13211 16.1493 4.21328 16.1736C4.37722 16.2226 4.55358 16.2034 4.70357 16.12C6.00052 15.3993 7.08415 15.2645 8.13944 15.4629C9.2308 15.6681 10.3376 16.2365 11.6701 17.0285C13.8188 18.3055 16.2494 18.4005 18.1802 17.766ZM6.37874 12.3236C6.80165 12.2356 7.23482 12.2101 7.66487 12.2481C7.82461 12.2622 7.9828 12.2848 8.14099 12.3142C9.23235 12.5194 10.3386 13.0884 11.6717 13.8799C14.5629 15.5977 17.9643 15.1773 19.9718 13.7166C20.0421 13.6672 20.1021 13.604 20.1482 13.5307C20.1943 13.4574 20.2256 13.3755 20.2404 13.2897C20.2551 13.204 20.2529 13.1161 20.234 13.0312C20.215 12.9463 20.1797 12.8661 20.13 12.7953C20.0803 12.7245 20.0173 12.6644 19.9446 12.6186C19.8719 12.5729 19.791 12.5423 19.7066 12.5287C19.6222 12.5151 19.536 12.5187 19.453 12.5394C19.37 12.56 19.2918 12.5973 19.2231 12.6491C17.6231 13.8127 14.769 14.2011 12.3204 12.7467C10.9833 11.952 9.70692 11.2744 8.37492 11.0236C7.00686 10.7664 5.62488 10.9658 4.08781 11.8193C3.93782 11.9026 3.8265 12.0433 3.77833 12.2103C3.73016 12.3773 3.74908 12.5569 3.83094 12.7097C3.9128 12.8625 4.05089 12.9759 4.21483 13.0249C4.37877 13.074 4.55513 13.0547 4.70511 12.9713C5.30232 12.6396 5.85418 12.4318 6.37874 12.3236ZM16.3355 12.0014C16.3355 12.1168 16.3313 12.2323 16.3226 12.3457C16.7676 12.3009 17.205 12.1969 17.6236 12.0365V12.0014C17.6236 8.83645 15.105 6.26986 11.9968 6.26986C10.9185 6.26977 9.86285 6.58529 8.95554 7.17886C8.04824 7.77243 7.32748 8.61906 6.87907 9.61797C7.3557 9.59015 7.82976 9.61272 8.30382 9.682C8.79955 8.86351 9.54388 8.23207 10.4239 7.88351C11.3038 7.53496 12.2714 7.48831 13.1798 7.75064C14.0881 8.01297 14.8877 8.56997 15.4571 9.33711C16.0265 10.1042 16.3352 11.0396 16.3355 12.0014ZM12.0349 22.4987C12.0068 22.5004 11.9786 22.5004 11.9504 22.4987H12.0349ZM5.61097 4.59817L5.55893 4.55094C5.43048 4.44595 5.26743 4.39508 5.10329 4.40876C4.93915 4.42245 4.7864 4.49966 4.67642 4.62452C4.56644 4.74938 4.50759 4.91241 4.51197 5.0801C4.51635 5.24779 4.58362 5.4074 4.69996 5.52613L5.80678 6.65354L5.85934 6.70078C5.98789 6.80478 6.15058 6.85486 6.31416 6.84078C6.47775 6.8267 6.62988 6.74952 6.73948 6.62502C6.84908 6.50052 6.90787 6.33809 6.90383 6.17092C6.8998 6.00375 6.83326 5.84445 6.71779 5.72558L5.61097 4.59817ZM19.3318 5.4726C19.4349 5.34171 19.4848 5.17555 19.4714 5.0083C19.4579 4.84105 19.382 4.68542 19.2593 4.57342C19.1366 4.46143 18.9764 4.40158 18.8118 4.40618C18.6471 4.41078 18.4904 4.47949 18.3739 4.59817L17.2671 5.72558L17.2207 5.77912C17.1186 5.91006 17.0694 6.07578 17.0833 6.24241C17.0971 6.40903 17.1728 6.564 17.2951 6.67563C17.4173 6.78727 17.5768 6.84715 17.7409 6.84305C17.905 6.83894 18.0614 6.77115 18.1781 6.65354L19.2849 5.52613L19.3318 5.4726ZM12.6378 2.09195C12.6216 1.92405 12.5426 1.76895 12.417 1.65888C12.2915 1.54881 12.1292 1.49222 11.9638 1.50086C11.7984 1.50951 11.6426 1.58273 11.5288 1.70531C11.415 1.8279 11.3519 1.99042 11.3527 2.15913V3.75367L11.3563 3.82032C11.3737 3.98716 11.4532 4.14086 11.5784 4.24984C11.7036 4.35883 11.8651 4.4148 12.0296 4.40627C12.1941 4.39773 12.3491 4.32533 12.4628 4.20395C12.5765 4.08257 12.6403 3.92144 12.6409 3.75367V2.15861L12.6378 2.09195Z" fill="#01337C"/>
</svg>
